<?xml version="1.0" encoding="UTF-8"?>
<svg version="1.1" xmlns="http://www.w3.org/2000/svg" width="250" height="250">
<path d="M0 0 C2.23564434 2.23564434 2.94665792 3.94958497 4.14453125 6.86328125 C4.56758545 7.88107666 4.99063965 8.89887207 5.42651367 9.94750977 C5.88388916 11.05795654 6.34126465 12.16840332 6.8125 13.3125 C12.94252335 27.99800666 19.40809124 42.51643197 26 57 C26.41443359 57.91297852 26.82886719 58.82595703 27.25585938 59.76660156 C30.76759709 67.47610493 34.27818666 74.99266354 39.06640625 82.01953125 C40 84 40 84 39.83398438 85.95776367 C38.68219442 88.77823293 37.28707415 89.29906002 34.58984375 90.65625 C33.68169922 91.12160156 32.77355469 91.58695312 31.83789062 92.06640625 C30.88076172 92.53949219 29.92363281 93.01257813 28.9375 93.5 C27.54241211 94.20962891 27.54241211 94.20962891 26.11914062 94.93359375 C24.28448122 95.864461 22.44582171 96.78749118 20.60302734 97.70214844 C18.93432916 98.53414989 17.2724154 99.37998572 15.61962891 100.24316406 C11.45578819 102.40794457 9.54151427 103.36245428 5 102 C0.37060913 101.63258803 -2.02910641 101.55189527 -6.25 103.5 C-11.75363558 108.50330507 -14.67747185 116.03316607 -15.15820312 123.4362793 C-15.19598623 126.10620245 -15.17497248 128.76781617 -15.125 131.4375 C-15.11597656 132.35982422 -15.10695312 133.28214844 -15.09765625 134.23242188 C-15.0742766 136.48855809 -15.04150916 138.74413684 -15 141 C-15.69335449 141.17015625 -16.38670898 141.3403125 -17.10107422 141.515625 C-38.49321103 146.83448328 -56.72080555 154.51120016 -76 165 C-76.66 165.33 -77.32 165.66 -78 166 C-77.4103279 162.31424249 -76.38808596 159.46837593 -74.62890625 156.18359375 C-74.14212402 155.26481445 -73.6553418 154.34603516 -73.15380859 153.39941406 C-72.62867676 152.42198242 -72.10354492 151.44455078 -71.5625 150.4375 C-70.46078037 148.35884567 -69.36054463 146.27940424 -68.26171875 144.19921875 C-67.7104834 143.15685059 -67.15924805 142.11448242 -66.59130859 141.04052734 C-64.28899515 136.64147677 -62.076255 132.20025765 -59.875 127.75 C-56.76167461 121.46664243 -53.55514988 115.24686804 -50.25 109.0625 C-40.714569 91.13773268 -31.84449104 72.72651058 -24 54 C-23.01257813 54.5775 -22.02515625 55.155 -21.0078125 55.75 C-19.71367265 56.500226 -18.41939463 57.25021368 -17.125 58 C-16.14853516 58.57234375 -16.14853516 58.57234375 -15.15234375 59.15625 C-11.79649799 61.27551156 -11.79649799 61.27551156 -8 62 C-8.60328125 61.48050781 -9.2065625 60.96101563 -9.828125 60.42578125 C-19.20968932 52.2396098 -19.20968932 52.2396098 -21 49 C-19.67433959 43.99412712 -17.47141818 39.27197958 -15.41015625 34.53125 C-15.06496445 33.73271606 -14.71977264 32.93418213 -14.36412048 32.1114502 C-13.63661061 30.43006117 -12.90787363 28.74920262 -12.17797852 27.06884766 C-11.06662904 24.50950881 -9.95978046 21.94825888 -8.85351562 19.38671875 C-8.14349613 17.74728019 -7.43321826 16.1079535 -6.72265625 14.46875 C-6.39443375 13.70921021 -6.06621124 12.94967041 -5.7280426 12.16711426 C-3.93519369 8.04611479 -2.05221242 4.00084564 0 0 Z " fill="#59BCFA" transform="translate(125,33)"/>
<path d="M0 0 C-2.18458929 2.38596565 -4.301395 3.8551023 -7.16796875 5.33984375 C-8.38516602 5.9750293 -8.38516602 5.9750293 -9.62695312 6.62304688 C-10.47193359 7.05681641 -11.31691406 7.49058594 -12.1875 7.9375 C-13.01314453 8.36740234 -13.83878906 8.79730469 -14.68945312 9.24023438 C-16.32925855 10.09179606 -17.9716496 10.93839886 -19.61669922 11.77978516 C-21.18546258 12.58296886 -22.74976393 13.39493803 -24.30908203 14.21630859 C-28.49496577 16.39060829 -30.43825429 17.36852371 -35 16 C-39.62939087 15.63258803 -42.02910641 15.55189527 -46.25 17.5 C-51.75363558 22.50330507 -54.67747185 30.03316607 -55.15820312 37.4362793 C-55.19598623 40.10620245 -55.17497248 42.76781617 -55.125 45.4375 C-55.11597656 46.35982422 -55.10695312 47.28214844 -55.09765625 48.23242188 C-55.0742766 50.48855809 -55.04150916 52.74413684 -55 55 C-55.69335449 55.17015625 -56.38670898 55.3403125 -57.10107422 55.515625 C-78.49321103 60.83448328 -96.72080555 68.51120016 -116 79 C-116.99 79.495 -116.99 79.495 -118 80 C-117.4103279 76.31424249 -116.38808596 73.46837593 -114.62890625 70.18359375 C-114.14196289 69.26441162 -113.65501953 68.34522949 -113.15332031 67.39819336 C-112.62834961 66.42116455 -112.10337891 65.44413574 -111.5625 64.4375 C-110.46329536 62.36540398 -109.36566647 60.29247137 -108.26953125 58.21875 C-107.71861816 57.1771875 -107.16770508 56.135625 -106.60009766 55.0625 C-104.24534407 50.55562954 -101.99852379 45.99797999 -99.75 41.4375 C-98.17583588 38.2869945 -96.58955328 35.14276216 -95 32 C-94.64454102 31.28859863 -94.28908203 30.57719727 -93.92285156 29.84423828 C-92.93170057 27.88194545 -91.90977799 25.93956264 -90.875 24 C-90.31554687 22.9275 -89.75609375 21.855 -89.1796875 20.75 C-86.71172604 17.63629952 -84.73539148 16.60433582 -81.18115234 15.01464844 C-78.91954085 13.96257127 -76.87886215 12.74977765 -74.7734375 11.4140625 C-52.33567802 -2.81574798 -25.60834565 -13.78910919 0 0 Z " fill="#168FE6" transform="translate(165,119)"/>
<path d="M0 0 C4.20933513 0.84186703 7.41267079 1.89114463 11.3125 3.5625 C12.91544922 4.24505859 12.91544922 4.24505859 14.55078125 4.94140625 C15.76314453 5.46541016 15.76314453 5.46541016 17 6 C17.33 5.34 17.66 4.68 18 4 C18.495 5.485 18.495 5.485 19 7 C22.3 8.65 25.6 10.3 29 12 C29 21.24 29 30.48 29 40 C24 39 24 39 22.671875 37.328125 C22.36765625 36.64234375 22.0634375 35.9565625 21.75 35.25 C21.43546875 34.57453125 21.1209375 33.8990625 20.796875 33.203125 C19.93571148 30.82226115 19.43550557 28.49109187 19 26 C17.94039062 26.6496875 16.88078125 27.299375 15.7890625 27.96875 C14.40118225 28.81273123 13.01315371 29.65646864 11.625 30.5 C10.92632812 30.92925781 10.22765625 31.35851562 9.5078125 31.80078125 C4.2265625 35 4.2265625 35 2 35 C2.061875 35.94875 2.12375 36.8975 2.1875 37.875 C2.0946875 39.421875 2.0946875 39.421875 2 41 C1.01 41.66 0.02 42.32 -1 43 C0.0997997 45.5661993 0.83923765 46.88179239 3.125 48.5625 C5.81431809 52.05861352 5.7994261 55.01935109 5.6484375 59.3515625 C4.87061952 62.52843353 4.03748222 63.46610429 1.375 65.3125 C-0.6640625 66.48828125 -0.6640625 66.48828125 -3 67 C-9.47477952 65.14803473 -15.31565162 62.00729002 -21.3125 59 C-22.42173828 58.4534375 -23.53097656 57.906875 -24.67382812 57.34375 C-25.72634766 56.8178125 -26.77886719 56.291875 -27.86328125 55.75 C-29.30634644 55.03070313 -29.30634644 55.03070313 -30.77856445 54.296875 C-33 53 -33 53 -34 51 C-24.90944198 44.8320139 -24.90944198 44.8320139 -20.3359375 45.234375 C-18.09970681 46.00649374 -16.07726904 46.87233966 -14 48 C-13.34 48.33 -12.68 48.66 -12 49 C-11.67 44.38 -11.34 39.76 -11 35 C-12.98 34.34 -14.96 33.68 -17 33 C-19.71915488 31.7540996 -22.34165149 30.37500785 -25 29 C-25 33.62 -25 38.24 -25 43 C-29.95 45.475 -29.95 45.475 -35 48 C-35.1983934 43.67693146 -35.34319621 39.35629654 -35.43945312 35.0300293 C-35.47958611 33.56015873 -35.53411158 32.09060567 -35.60351562 30.62182617 C-36.15947663 18.55011406 -36.15947663 18.55011406 -33.56591797 15.08276367 C-31.4348642 13.70574586 -29.38299242 12.86876959 -27 12 C-25.22617156 11.11926113 -23.45814819 10.22675886 -21.6953125 9.32421875 C-19.84094573 8.44025154 -17.98413394 7.56139652 -16.125 6.6875 C-15.17625 6.23310547 -14.2275 5.77871094 -13.25 5.31054688 C-6.26051457 2 -6.26051457 2 -4 2 C-3.52420449 5.77332273 -3.2835801 9.24933112 -4 13 C-6.34739273 15.42975739 -8.88640384 16.74205155 -12 18 C-8.06387082 20.34503793 -8.06387082 20.34503793 -3.625 20.9375 C0.08540333 19.61235595 3.52764501 17.85249708 7 16 C4.69 14.68 2.38 13.36 0 12 C0 8.04 0 4.08 0 0 Z " fill="#C0C5CB" transform="translate(169,124)"/>
<path d="M0 0 C0.66 0.33 1.32 0.66 2 1 C1.525625 1.78375 1.05125 2.5675 0.5625 3.375 C-0.33898023 4.88948678 -1.21179485 6.4235897 -2 8 C-2.99 8 -3.98 8 -5 8 C-5.33 8.66 -5.66 9.32 -6 10 C-6.8971875 10.1546875 -6.8971875 10.1546875 -7.8125 10.3125 C-10.98209357 11.30865798 -12.06090721 13.37284202 -14 16 C-15 17 -16 18 -17 19 C-17.495 19.680625 -17.99 20.36125 -18.5 21.0625 C-20 23 -20 23 -23 25 C-23.25030977 27.58380177 -23.25030977 27.58380177 -23 30 C-24.65 30.33 -26.3 30.66 -28 31 C-28 32.65 -28 34.3 -28 36 C-28.66 36 -29.32 36 -30 36 C-30.99 38.475 -30.99 38.475 -32 41 C-32.66 41 -33.32 41 -34 41 C-34.103125 41.598125 -34.20625 42.19625 -34.3125 42.8125 C-35.08876455 45.28243264 -36.07088921 46.32251235 -38 48 C-37.34 48 -36.68 48 -36 48 C-36.309375 48.556875 -36.61875 49.11375 -36.9375 49.6875 C-38.06825878 52.14856323 -38.49422535 54.34468308 -39 57 C-39.64389782 59.00744615 -40.30562253 61.00945124 -41 63 C-36.17862081 62.3703072 -32.35099196 60.33319806 -28.0625 58.1875 C-18.99093681 53.77459935 -9.9323724 50.89450807 0 49 C0.01458252 48.44650879 0.02916504 47.89301758 0.04418945 47.32275391 C0.65804721 26.47761936 0.65804721 26.47761936 4 19 C4.5259375 17.82244141 4.5259375 17.82244141 5.0625 16.62109375 C7.68492569 11.38486877 10.82383736 6.93722291 16 4 C20.34967175 3.23689969 22.29139918 3.62485839 26.1875 5.6875 C28.90902474 7.92519812 30.94224449 10.15080006 33 13 C30.67612302 14.4631818 29.50654601 15.08442433 26.75 14.625 C25.38875 14.315625 25.38875 14.315625 24 14 C19.37060913 13.63258803 16.97089359 13.55189527 12.75 15.5 C7.24636442 20.50330507 4.32252815 28.03316607 3.84179688 35.4362793 C3.80401377 38.10620245 3.82502752 40.76781617 3.875 43.4375 C3.88402344 44.35982422 3.89304688 45.28214844 3.90234375 46.23242188 C3.9257234 48.48855809 3.95849084 50.74413684 4 53 C3.30664551 53.17015625 2.61329102 53.3403125 1.89892578 53.515625 C-19.49321103 58.83448328 -37.72080555 66.51120016 -57 77 C-57.99 77.495 -57.99 77.495 -59 78 C-58.4103279 74.31424249 -57.38808596 71.46837593 -55.62890625 68.18359375 C-55.14196289 67.26441162 -54.65501953 66.34522949 -54.15332031 65.39819336 C-53.62834961 64.42116455 -53.10337891 63.44413574 -52.5625 62.4375 C-51.46329536 60.36540398 -50.36566647 58.29247137 -49.26953125 56.21875 C-48.71861816 55.1771875 -48.16770508 54.135625 -47.60009766 53.0625 C-45.24534407 48.55562954 -42.99852379 43.99797999 -40.75 39.4375 C-39.17583588 36.2869945 -37.58955328 33.14276216 -36 30 C-35.64454102 29.28859863 -35.28908203 28.57719727 -34.92285156 27.84423828 C-33.93170057 25.88194545 -32.90977799 23.93956264 -31.875 22 C-31.31554687 20.9275 -30.75609375 19.855 -30.1796875 18.75 C-27.7197553 15.64642963 -25.77540428 14.62091951 -22.23388672 13.03662109 C-18.16603377 11.1489595 -14.42832704 8.67783107 -10.625 6.3125 C-9.03425291 5.328782 -7.44312571 4.34567831 -5.8515625 3.36328125 C-5.15885254 2.93313721 -4.46614258 2.50299316 -3.75244141 2.05981445 C-2 1 -2 1 0 0 Z " fill="#077CD6" transform="translate(106,121)"/>
<path d="M0 0 C2.15537548 3.23306322 2.72916592 5.54915965 3.625 9.3125 C5.36675496 16.26282291 7.66548547 22.96065578 10.125 29.6875 C10.47385254 30.64374268 10.82270508 31.59998535 11.18212891 32.58520508 C12.94068578 37.44883569 12.94068578 37.44883569 15.13623047 42.12036133 C16.317984 44.69196122 15.74000312 46.33598876 15 49 C13.35 48.67 11.7 48.34 10 48 C9.67 48.66 9.34 49.32 9 50 C8.01 50.495 8.01 50.495 7 51 C6.34 50.67 5.68 50.34 5 50 C4.67 50.66 4.34 51.32 4 52 C2.00892752 53.01765927 0.00781177 54.01577854 -2 55 C-2.680625 55.556875 -3.36125 56.11375 -4.0625 56.6875 C-6.65553098 58.44406937 -7.90589176 58.45554655 -11 58 C-13.45703125 55.8125 -13.45703125 55.8125 -15.8125 53 C-16.99779297 51.6078125 -16.99779297 51.6078125 -18.20703125 50.1875 C-18.79871094 49.465625 -19.39039062 48.74375 -20 48 C-18.4365363 43.01004372 -16.46611554 38.27990586 -14.375 33.49609375 C-14.02743652 32.69518814 -13.67987305 31.89428253 -13.32177734 31.06910706 C-12.21689737 28.52419625 -11.10860704 25.98078916 -10 23.4375 C-8.89202825 20.8903693 -7.78477852 18.34292739 -6.67822266 15.79518127 C-5.99136129 14.21430751 -5.30357939 12.63383328 -4.61474609 11.05381775 C-3.02042423 7.38964624 -1.45625031 3.72198824 0 0 Z " fill="#067CD8" transform="translate(124,34)"/>
<path d="M0 0 C4.20933513 0.84186703 7.41267079 1.89114463 11.3125 3.5625 C12.91544922 4.24505859 12.91544922 4.24505859 14.55078125 4.94140625 C15.76314453 5.46541016 15.76314453 5.46541016 17 6 C17.33 5.34 17.66 4.68 18 4 C18.495 5.485 18.495 5.485 19 7 C21.31869204 8.46293963 21.31869204 8.46293963 24.0625 9.6875 C24.98160156 10.12449219 25.90070313 10.56148437 26.84765625 11.01171875 C27.55792969 11.33785156 28.26820313 11.66398438 29 12 C24.20728647 16.28658645 18.63503459 19.05690236 13 22.0625 C11.04118042 23.11498094 9.08283113 24.16833773 7.125 25.22265625 C6.26132813 25.68422119 5.39765625 26.14578613 4.5078125 26.62133789 C1.94088076 27.96112071 1.94088076 27.96112071 -0.4453125 29.79858398 C-3 31 -3 31 -5.94775391 30.36376953 C-8.94553424 29.02433577 -11.90530171 27.6607615 -14.8359375 26.1796875 C-15.89941406 25.64472656 -16.96289062 25.10976562 -18.05859375 24.55859375 C-19.15300781 24.00300781 -20.24742187 23.44742188 -21.375 22.875 C-22.49261719 22.31167969 -23.61023438 21.74835938 -24.76171875 21.16796875 C-27.5096609 19.78225433 -30.2556598 18.39283053 -33 17 C-33 16.34 -33 15.68 -33 15 C-29.19380871 13.14361774 -25.38518959 11.2923437 -21.57421875 9.44580078 C-20.27763717 8.81667289 -18.98173413 8.18614459 -17.68652344 7.55419922 C-15.82662989 6.64703828 -13.96436859 5.74491197 -12.1015625 4.84375 C-10.98088379 4.29912109 -9.86020508 3.75449219 -8.70556641 3.19335938 C-6 2 -6 2 -4 2 C-3.52420449 5.77332273 -3.2835801 9.24933112 -4 13 C-6.34739273 15.42975739 -8.88640384 16.74205155 -12 18 C-8.06387082 20.34503793 -8.06387082 20.34503793 -3.625 20.9375 C0.08540333 19.61235595 3.52764501 17.85249708 7 16 C4.69 14.68 2.38 13.36 0 12 C0 8.04 0 4.08 0 0 Z " fill="#F4F6F7" transform="translate(169,124)"/>
<path d="M0 0 C2.23564434 2.23564434 2.94665792 3.94958497 4.14453125 6.86328125 C4.56758545 7.88107666 4.99063965 8.89887207 5.42651367 9.94750977 C5.88388916 11.05795654 6.34126465 12.16840332 6.8125 13.3125 C12.94252335 27.99800666 19.40809124 42.51643197 26 57 C26.41443359 57.91297852 26.82886719 58.82595703 27.25585938 59.76660156 C30.77774051 67.49837331 34.35206746 75.05653013 38.96875 82.21484375 C40 84 40 84 40 86 C39.21689453 85.70996094 39.21689453 85.70996094 38.41796875 85.4140625 C20.42327231 79.04816288 2.448965 79.46875223 -15.109375 87.23046875 C-17 88 -17 88 -19 88 C-18.38722388 85.03824877 -17.74627478 83.61941217 -16 81 C-15.34 81.33 -14.68 81.66 -14 82 C-14 80.35 -14 78.7 -14 77 C-9.14105633 74.48054772 -5.49472174 73 0 73 C1.0828125 72.505 1.0828125 72.505 2.1875 72 C5.10050088 70.96426635 6.94138818 70.92749957 10 71 C13.86831224 71.08023166 16.50441341 70.79773024 20 69 C21.66324629 68.32484521 23.32955215 67.65713485 25 67 C24.53851563 66.195625 24.07703125 65.39125 23.6015625 64.5625 C15.26350495 49.67466169 8.65544162 33.80117868 3.4375 17.5625 C3.19821777 16.82483398 2.95893555 16.08716797 2.71240234 15.32714844 C1.15155727 10.22846559 0.46574687 5.31160758 0 0 Z " fill="#83D3FB" transform="translate(125,33)"/>
<path d="M0 0 C-3.48772112 3.81093963 -7.84461779 5.76457564 -12.375 8.125 C-13.22578125 8.58003906 -14.0765625 9.03507813 -14.953125 9.50390625 C-15.78070313 9.93832031 -16.60828125 10.37273437 -17.4609375 10.8203125 C-18.58701416 11.41223389 -18.58701416 11.41223389 -19.73583984 12.01611328 C-22.17811046 13.07739758 -24.35820181 13.67229234 -27 14 C-28.94921875 12.8203125 -28.94921875 12.8203125 -30.6875 11.125 C-33.70561325 8.24741974 -34.99767786 7.07564695 -39.3125 6.75 C-43.16727682 7.0113408 -44.92179109 7.76130261 -48 10 C-48.12375 9.360625 -48.2475 8.72125 -48.375 8.0625 C-48.58125 7.381875 -48.7875 6.70125 -49 6 C-49.66 5.67 -50.32 5.34 -51 5 C-51 4.34 -51 3.68 -51 3 C-51.99 2.67 -52.98 2.34 -54 2 C-54 1.34 -54 0.68 -54 0 C-36.89394898 -7.64391868 -16.93807207 -9.12050035 0 0 Z " fill="#0880DB" transform="translate(165,119)"/>
<path d="M0 0 C2.53575365 2.2275405 3.37725095 3.94394127 4.375 7.125 C5.24927589 9.33728159 5.24927589 9.33728159 7 11 C11.34364092 12.0239352 15.55131084 12.10285986 20 12 C18.1144852 16.28359673 15.64034299 18.15103592 12 21 C12.28875 21.84304687 12.5775 22.68609375 12.875 23.5546875 C13.24625 24.65039062 13.6175 25.74609375 14 26.875 C14.556875 28.51082031 14.556875 28.51082031 15.125 30.1796875 C16 33 16 33 16 35 C12.81243199 34.51703515 10.45660779 33.74771076 7.5 32.375 C3.7254071 30.89212422 2.69584465 30.55771916 -1 32 C-3.12259617 33.25463533 -5.18670811 34.56196551 -7.23046875 35.94140625 C-9 37 -9 37 -11 37 C-10.76603516 35.89591797 -10.76603516 35.89591797 -10.52734375 34.76953125 C-10.33269531 33.79371094 -10.13804687 32.81789062 -9.9375 31.8125 C-9.74027344 30.84957031 -9.54304687 29.88664062 -9.33984375 28.89453125 C-8.98628804 25.88321192 -9.07534758 23.87990703 -10 21 C-11.36304776 19.23096987 -11.36304776 19.23096987 -13.0625 17.8125 C-14.72265625 16.33203125 -14.72265625 16.33203125 -16 15 C-16 14.34 -16 13.68 -16 13 C-11.9472484 12.01751476 -8.16138263 11.91840426 -4 12 C-3.79503906 11.30132812 -3.59007812 10.60265625 -3.37890625 9.8828125 C-3.10949219 8.97273437 -2.84007812 8.06265625 -2.5625 7.125 C-2.29566406 6.22007812 -2.02882812 5.31515625 -1.75390625 4.3828125 C-1 2 -1 2 0 0 Z " fill="#F2F4F5" transform="translate(186,154)"/>
<path d="M0 0 C0.33 0 0.66 0 1 0 C1.33 2.31 1.66 4.62 2 7 C2.99 5.02 3.98 3.04 5 1 C5.33 1 5.66 1 6 1 C6 9.91 6 18.82 6 28 C6.66 28 7.32 28 8 28 C8 21.73 8 15.46 8 9 C15.9729805 15.83398329 15.9729805 15.83398329 16.37890625 18.328125 C16.85835334 25.95847448 16.85835334 25.95847448 14.42578125 28.91015625 C12.20127766 30.43129299 10.64340987 31.42092526 8 32 C1.52522048 30.14803473 -4.31565162 27.00729002 -10.3125 24 C-11.42173828 23.4534375 -12.53097656 22.906875 -13.67382812 22.34375 C-14.72634766 21.8178125 -15.77886719 21.291875 -16.86328125 20.75 C-18.30634644 20.03070313 -18.30634644 20.03070313 -19.77856445 19.296875 C-22 18 -22 18 -23 16 C-13.90944198 9.8320139 -13.90944198 9.8320139 -9.3359375 10.234375 C-7.09970681 11.00649374 -5.07726904 11.87233966 -3 13 C-2.34 13.33 -1.68 13.66 -1 14 C-0.67 9.38 -0.34 4.76 0 0 Z " fill="#B1B8C0" transform="translate(158,159)"/>
<path d="M0 0 C4.36552692 2.31116131 7.12111605 5.01385299 10 9 C7.67612302 10.4631818 6.50654601 11.08442433 3.75 10.625 C2.38875 10.315625 2.38875 10.315625 1 10 C-3.62939087 9.63258803 -6.02910641 9.55189527 -10.25 11.5 C-15.75363558 16.50330507 -18.67747185 24.03316607 -19.15820312 31.4362793 C-19.19598623 34.10620245 -19.17497248 36.76781617 -19.125 39.4375 C-19.11597656 40.35982422 -19.10695312 41.28214844 -19.09765625 42.23242188 C-19.0742766 44.48855809 -19.04150916 46.74413684 -19 49 C-19.69335449 49.17015625 -20.38670898 49.3403125 -21.10107422 49.515625 C-36.5481069 53.35631555 -51.09806172 57.69414441 -65.19433594 65.16259766 C-65.91137695 65.53819824 -66.62841797 65.91379883 -67.3671875 66.30078125 C-68.33954346 66.82345581 -68.33954346 66.82345581 -69.33154297 67.35668945 C-70.1574292 67.67512817 -70.1574292 67.67512817 -71 68 C-71.66 67.67 -72.32 67.34 -73 67 C-57.13151121 56.63647973 -41.82815414 48.56965004 -23 45 C-22.98541748 44.44650879 -22.97083496 43.89301758 -22.95581055 43.32275391 C-22.34195279 22.47761936 -22.34195279 22.47761936 -19 15 C-18.649375 14.21496094 -18.29875 13.42992187 -17.9375 12.62109375 C-14.16073754 5.07999238 -9.22783212 -1.67778766 0 0 Z " fill="#05448A" transform="translate(129,125)"/>
<path d="M0 0 C2.23564434 2.23564434 2.94665792 3.94958497 4.14453125 6.86328125 C4.56758545 7.88107666 4.99063965 8.89887207 5.42651367 9.94750977 C5.88388916 11.05795654 6.34126465 12.16840332 6.8125 13.3125 C12.94252335 27.99800666 19.40809124 42.51643197 26 57 C26.41443359 57.91297852 26.82886719 58.82595703 27.25585938 59.76660156 C30.77774051 67.49837331 34.35206746 75.05653013 38.96875 82.21484375 C40 84 40 84 40 86 C37.03 85.01 37.03 85.01 34 84 C34.66 83.67 35.32 83.34 36 83 C35.63350342 82.36312256 35.26700684 81.72624512 34.8894043 81.07006836 C26.64810867 66.69440014 18.95485156 52.22076973 12.01464844 37.16870117 C10.50192785 33.93542471 8.98570271 30.97855407 7 28 C5.82678768 25.01001898 4.90280402 21.93766773 3.9375 18.875 C3.5343457 17.64910156 3.5343457 17.64910156 3.12304688 16.3984375 C1.38077289 10.90658134 0.46805451 5.74377998 0 0 Z " fill="#66C3F1" transform="translate(125,33)"/>
<path d="M0 0 C4.7641112 4.27548441 4.7641112 4.27548441 5.875 7.6875 C6 10 6 10 5 12 C2.525 11.505 2.525 11.505 0 11 C-0.33 11.66 -0.66 12.32 -1 13 C-1.99 13.495 -1.99 13.495 -3 14 C-3.66 13.67 -4.32 13.34 -5 13 C-5.33 13.66 -5.66 14.32 -6 15 C-7.99107248 16.01765927 -9.99218823 17.01577854 -12 18 C-12.680625 18.556875 -13.36125 19.11375 -14.0625 19.6875 C-16.50754255 21.34381914 -18.1075375 21.24103854 -21 21 C-21.625 19.1875 -21.625 19.1875 -22 17 C-20 14 -20 14 -17 13 C-16.938125 12.05125 -16.87625 11.1025 -16.8125 10.125 C-16.4103125 8.578125 -16.4103125 8.578125 -16 7 C-13.75 5.75 -13.75 5.75 -11 5 C-10.175 4.67 -9.35 4.34 -8.5 4 C-6.75427709 3.30171083 -5.0038481 2.61512313 -3.25 1.9375 C-1.06969081 1.19660741 -1.06969081 1.19660741 0 0 Z " fill="#2495E7" transform="translate(134,71)"/>
<path d="M0 0 C5.67799642 2.4686941 5.67799642 2.4686941 7.25 5.0625 C7.4975 5.701875 7.745 6.34125 8 7 C8.66 7.66 9.32 8.32 10 9 C9.34 9 8.68 9 8 9 C8.33 9.66 8.66 10.32 9 11 C9.07181821 13.71760108 9.09299506 16.40859388 9.0625 19.125 C9.05798828 19.87910156 9.05347656 20.63320312 9.04882812 21.41015625 C9.03703499 23.27347127 9.01909942 25.13674555 9 27 C5.7 28.65 2.4 30.3 -1 32 C-1.02465504 27.60343827 -1.04283842 23.2069128 -1.05493164 18.81030273 C-1.05997121 17.31355082 -1.06680287 15.81680384 -1.07543945 14.32006836 C-1.08752159 12.17300193 -1.09323191 10.02600038 -1.09765625 7.87890625 C-1.10289307 6.5854126 -1.10812988 5.29191895 -1.11352539 3.95922852 C-1 1 -1 1 0 0 Z " fill="#A3A8B1" transform="translate(135,140)"/>
<path d="M0 0 C2.6895528 2.6895528 3.69331154 5.45327417 5 9 C4.67 9.99 4.34 10.98 4 12 C-3.53191489 13.0212766 -3.53191489 13.0212766 -6.75 12.875 C-9.69812216 13.03878456 -10.86424122 14.01153493 -13 16 C-13.66 16.99 -14.32 17.98 -15 19 C-19.43090471 17.79157144 -21.98112756 16.48331435 -25 13 C-23.71170846 10.42341692 -22.58096973 10.21879126 -20 9 C-19.13375 8.46375 -18.2675 7.9275 -17.375 7.375 C-15 6 -15 6 -13 6 C-12.67 5.34 -12.34 4.68 -12 4 C-9.6875 3.4375 -9.6875 3.4375 -7 3 C-6.278125 2.79375 -5.55625 2.5875 -4.8125 2.375 C-3 2 -3 2 -1 3 C-0.67 2.01 -0.34 1.02 0 0 Z " fill="#3DA9F3" transform="translate(140,80)"/>
<path d="M0 0 C0.66 0.99 1.32 1.98 2 3 C1.67 3.66 1.34 4.32 1 5 C0.34 5 -0.32 5 -1 5 C-1.35707031 6.06992188 -1.71414062 7.13984375 -2.08203125 8.2421875 C-3.88251242 12.42891199 -6.70729835 14.15065195 -10.6875 16.125 C-11.94732953 16.79292406 -13.20644845 17.46219022 -14.46484375 18.1328125 C-16.21474609 19.05707031 -16.21474609 19.05707031 -18 20 C-19.59504942 20.98120425 -21.18124784 21.9772776 -22.75 23 C-26 25 -26 25 -28 25 C-26.35433477 19.31497465 -23.70967216 14.23318364 -21 9 C-20.01 9 -19.02 9 -18 9 C-17.67 8.34 -17.34 7.68 -17 7 C-15 6.66666667 -13 6.33333333 -11 6 C-10.67 5.34 -10.34 4.68 -10 4 C-9.071875 3.855625 -8.14375 3.71125 -7.1875 3.5625 C-3.89089665 2.98074647 -2.46516491 2.1807228 0 0 Z " fill="#6BC5FB" transform="translate(110,110)"/>
<path d="M0 0 C2.23365444 3.35048166 2.90119161 6.03824245 3.875 9.9375 C5.41033114 15.96360132 7.20533566 21.83520664 9.265625 27.70703125 C10 30 10 30 10 32 C9.01 31.67 8.02 31.34 7 31 C7 30.01 7 29.02 7 28 C5.68 28.33 4.36 28.66 3 29 C3.020625 27.88625 3.04125 26.7725 3.0625 25.625 C3.26380718 22.16784079 3.26380718 22.16784079 2 20 C2 20.66 2 21.32 2 22 C1.67 22.99 1.34 23.98 1 25 C-1.0625 25.6875 -1.0625 25.6875 -3 26 C-3 25.34 -3 24.68 -3 24 C-3.99 23.67 -4.98 23.34 -6 23 C-6.33 22.67 -6.66 22.34 -7 22 C-7.33 22.99 -7.66 23.98 -8 25 C-8.66 24.67 -9.32 24.34 -10 24 C-6.7 16.08 -3.4 8.16 0 0 Z " fill="#0577D3" transform="translate(124,34)"/>
<path d="M0 0 C0 3.63 0 7.26 0 11 C-8.43461538 16.08557692 -8.43461538 16.08557692 -11.296875 15.65234375 C-12.13992187 15.32943359 -12.13992187 15.32943359 -13 15 C-13 11 -13 11 -12 10 C-14.475 9.01 -14.475 9.01 -17 8 C-13.9703348 5.55185821 -10.92450401 3.90547147 -7.375 2.3125 C-6.41335937 1.87550781 -5.45171875 1.43851562 -4.4609375 0.98828125 C-2 0 -2 0 0 0 Z " fill="#E1E5EA" transform="translate(165,126)"/>
<path d="M0 0 C0.33 1.32 0.66 2.64 1 4 C0.01 3.67 -0.98 3.34 -2 3 C-2.6496875 3.7425 -2.6496875 3.7425 -3.3125 4.5 C-5 6 -5 6 -8 6 C-11.47571556 7.15857185 -14.2590155 8.55269241 -17 11 C-17.33 11.99 -17.66 12.98 -18 14 C-18.99 14.33 -19.98 14.66 -21 15 C-22.09166275 16.93330603 -22.09166275 16.93330603 -23 19 C-23.66 19.66 -24.32 20.32 -25 21 C-26.5625 19.75 -26.5625 19.75 -28 18 C-27.75 16 -27.75 16 -27 14 C-26.67 13.01 -26.34 12.02 -26 11 C-25.34 11 -24.68 11 -24 11 C-24 10.01 -24 9.02 -24 8 C-23.34 8 -22.68 8 -22 8 C-21.5875 7.54625 -21.175 7.0925 -20.75 6.625 C-18.40271106 4.44537455 -16.04328126 3.9547549 -13 3 C-12.030625 2.46375 -11.06125 1.9275 -10.0625 1.375 C-6.49301568 -0.22762561 -3.87019508 -0.23221171 0 0 Z " fill="#1487DD" transform="translate(136,69)"/>
<path d="M0 0 C0.66 0.66 1.32 1.32 2 2 C-1.55647501 3.99014023 -5.12113698 5.9651423 -8.6875 7.9375 C-9.69490234 8.50146484 -10.70230469 9.06542969 -11.74023438 9.64648438 C-12.71669922 10.18466797 -13.69316406 10.72285156 -14.69921875 11.27734375 C-15.59471436 11.77484131 -16.49020996 12.27233887 -17.4128418 12.78491211 C-19.96977763 13.98580573 -22.21756398 14.57682415 -25 15 C-25.33 14.01 -25.66 13.02 -26 12 C-25.34 12 -24.68 12 -24 12 C-24 10.68 -24 9.36 -24 8 C-23.34 8 -22.68 8 -22 8 C-21.67 7.34 -21.34 6.68 -21 6 C-18.42794921 4.31827448 -16.59629225 3.94953653 -13.5 3.5625 C-10.04514583 3.28833974 -10.04514583 3.28833974 -7.9375 1.4375 C-5.22374731 -0.57592941 -3.29229232 -0.35785786 0 0 Z " fill="#2297EA" transform="translate(163,118)"/>
<path d="M0 0 C7.97899495 6.83913853 7.97899495 6.83913853 8.30859375 9.36328125 C8.43886359 12.3436973 8.46862119 15.05069602 8 18 C3.72093023 22 3.72093023 22 0 22 C0 14.74 0 7.48 0 0 Z " fill="#9DA4AD" transform="translate(166,168)"/>
<path d="M0 0 C0.99 1.485 0.99 1.485 2 3 C2.98095748 4.01868662 3.97702078 5.02351983 5 6 C5.66 5.67 6.32 5.34 7 5 C7.13501894 7.43934225 7.23403897 9.87124104 7.3125 12.3125 C7.35439453 13.00279297 7.39628906 13.69308594 7.43945312 14.40429688 C7.48828125 16.42578125 7.48828125 16.42578125 7 20 C4.5884676 21.99453006 3.1524256 23 0 23 C0 15.41 0 7.82 0 0 Z " fill="#C1C7CD" transform="translate(135,148)"/>
<path d="M0 0 C0.66 0 1.32 0 2 0 C2.33 0.66 2.66 1.32 3 2 C3.66 1.67 4.32 1.34 5 1 C5.66 1.33 6.32 1.66 7 2 C7.390625 7.95703125 7.390625 7.95703125 7 10 C6.3503125 10.3815625 5.700625 10.763125 5.03125 11.15625 C2.5491902 13.40919658 2.63999655 14.19139492 2.390625 17.44921875 C2.32425764 19.1946803 2.27810748 20.94100333 2.25 22.6875 C2.22035156 23.58017578 2.19070312 24.47285156 2.16015625 25.39257812 C2.08948573 27.59514277 2.03678061 29.79665131 2 32 C1.34 32 0.68 32 0 32 C-1.0229267 21.18845168 -0.86039692 10.81452748 0 0 Z " fill="#C5CBD3" transform="translate(164,155)"/>
<path d="M0 0 C1.27303534 2.94521935 0.95558363 4.13146213 -0.09228516 7.23291016 C-0.64586999 8.50691275 -1.21233763 9.77536665 -1.7890625 11.0390625 C-2.23951431 12.06040787 -2.23951431 12.06040787 -2.69906616 13.10238647 C-3.6636759 15.28153082 -4.64432046 17.45304782 -5.625 19.625 C-6.26272254 21.06335745 -6.89945182 22.50215572 -7.53515625 23.94140625 C-10.56220428 30.76092896 -13.65317117 37.50758937 -17.16552734 44.09521484 C-18.20063726 46.11138633 -18.20063726 46.11138633 -18 49 C-20.475 49.495 -20.475 49.495 -23 50 C-22.51273437 48.98808594 -22.02546875 47.97617188 -21.5234375 46.93359375 C-14.09014803 31.40655639 -7.05071665 15.70325245 0 0 Z " fill="#34A2E6" transform="translate(101,87)"/>
<path d="M0 0 C1.32 0 2.64 0 4 0 C4.50789062 1.11117187 5.01578125 2.22234375 5.5390625 3.3671875 C9.00941038 10.88881137 12.46864907 18.23729364 16.96875 25.21484375 C18 27 18 27 18 29 C16.02 28.34 14.04 27.68 12 27 C12.66 26.67 13.32 26.34 14 26 C13.57589844 25.2479126 13.15179688 24.4958252 12.71484375 23.72094727 C11.14771547 20.93950983 9.58248629 18.1570152 8.01855469 15.3737793 C7.340283 14.16761975 6.661248 12.96188912 5.98144531 11.7565918 C5.00647324 10.0276508 4.0344396 8.2970538 3.0625 6.56640625 C2.47597656 5.52427979 1.88945312 4.48215332 1.28515625 3.40844727 C0 1 0 1 0 0 Z " fill="#73CBF1" transform="translate(147,90)"/>
<path d="M0 0 C3.38251977 3.38251977 4.75849836 7.95830165 6.625 12.3125 C7.04523438 13.26318359 7.46546875 14.21386719 7.8984375 15.19335938 C8.49398437 16.5768457 8.49398437 16.5768457 9.1015625 17.98828125 C9.46588379 18.82915283 9.83020508 19.67002441 10.20556641 20.53637695 C11.05267573 23.16335305 11.14878163 25.25794836 11 28 C10.01 27.67 9.02 27.34 8 27 C7.26953125 25.15234375 7.26953125 25.15234375 6.8125 22.9375 C6.65394531 22.20402344 6.49539062 21.47054687 6.33203125 20.71484375 C6.22246094 20.14894531 6.11289063 19.58304688 6 19 C5.34 19 4.68 19 4 19 C3.32713788 16.58490559 2.66153988 14.16819644 2 11.75 C1.71382813 10.72712891 1.71382813 10.72712891 1.421875 9.68359375 C0.50042956 6.29399088 0 3.54221024 0 0 Z " fill="#66C5F4" transform="translate(125,33)"/>
<path d="M0 0 C5.73236598 -0.45858928 8.55296547 0.34354939 13 4 C15.375 6.75 15.375 6.75 17 9 C14.42786866 10.61949011 13.32330841 11.04408751 10.25 10.625 C9.13625 10.315625 9.13625 10.315625 8 10 C8 9.34 8 8.68 8 8 C7.34 8 6.68 8 6 8 C6 7.34 6 6.68 6 6 C6.66 6 7.32 6 8 6 C8 5.34 8 4.68 8 4 C7.01 4.33 6.02 4.66 5 5 C4.67 4.01 4.34 3.02 4 2 C1.99983534 0.79117904 1.99983534 0.79117904 0 0 Z " fill="#034B97" transform="translate(122,125)"/>
<path d="M0 0 C2 0 2 0 4.4375 2.375 C5.283125 3.24125 6.12875 4.1075 7 5 C7.99 5.66 8.98 6.32 10 7 C9.67 11.29 9.34 15.58 9 20 C10.32 19.67 11.64 19.34 13 19 C10.4041044 21.87402727 8.78630702 23.24432948 5 24 C5.15597656 23.26394531 5.31195313 22.52789062 5.47265625 21.76953125 C5.66730469 20.79371094 5.86195313 19.81789062 6.0625 18.8125 C6.25972656 17.84957031 6.45695313 16.88664062 6.66015625 15.89453125 C7.01371196 12.88321192 6.92465242 10.87990703 6 8 C4.63695224 6.23096987 4.63695224 6.23096987 2.9375 4.8125 C1.27734375 3.33203125 1.27734375 3.33203125 0 2 C0 1.34 0 0.68 0 0 Z " fill="#9499A1" transform="translate(170,167)"/>
<path d="M0 0 C0.99 0.66 1.98 1.32 3 2 C3.3984375 4.53125 3.3984375 4.53125 3.375 7.5 C3.38273438 8.4796875 3.39046875 9.459375 3.3984375 10.46875 C3.26695312 11.3040625 3.13546875 12.139375 3 13 C0 15 0 15 -3 15 C-3.33 14.01 -3.66 13.02 -4 12 C-3.34 11.01 -2.68 10.02 -2 9 C-1.63239269 6.67182036 -1.29758419 4.3381615 -1 2 C-0.67 1.34 -0.34 0.68 0 0 Z " fill="#8C949E" transform="translate(171,173)"/>
<path d="M0 0 C2.625 0.375 2.625 0.375 5 1 C4.67 1.66 4.34 2.32 4 3 C3.34 3 2.68 3 2 3 C2.33 3.99 2.66 4.98 3 6 C2.34 6 1.68 6 1 6 C1 6.99 1 7.98 1 9 C-1.31 9.66 -3.62 10.32 -6 11 C-6.33 10.01 -6.66 9.02 -7 8 C-6.34 8 -5.68 8 -5 8 C-5 6.68 -5 5.36 -5 4 C-4.34 4 -3.68 4 -3 4 C-2.67 3.34 -2.34 2.68 -2 2 C-1.34 1.34 -0.68 0.68 0 0 Z " fill="#2195E7" transform="translate(144,122)"/>
<path d="M0 0 C0 0.66 0 1.32 0 2 C0.66 2.66 1.32 3.32 2 4 C-1.83606631 7.37939175 -5.29729554 9.87258608 -10 12 C-9.43453326 8.04173281 -8.36453668 5.240291 -6 2 C-3.80010103 0.60006429 -2.60233337 0 0 0 Z " fill="#0A70C5" transform="translate(57,187)"/>
<path d="M0 0 C0.33 0 0.66 0 1 0 C1 4.95 1 9.9 1 15 C-0.65 14.67 -2.3 14.34 -4 14 C-5.3125 11.4375 -5.3125 11.4375 -6 9 C-5.38125 8.443125 -4.7625 7.88625 -4.125 7.3125 C-1.93893621 4.93354822 -1.01214301 3.03642904 0 0 Z " fill="#A3A9B1" transform="translate(197,149)"/>
<path d="M0 0 C0.56203125 0.37898437 1.1240625 0.75796875 1.703125 1.1484375 C1.703125 2.4684375 1.703125 3.7884375 1.703125 5.1484375 C-0.771875 4.1584375 -0.771875 4.1584375 -3.296875 3.1484375 C-3.626875 4.7984375 -3.956875 6.4484375 -4.296875 8.1484375 C-6.31732942 7.54660001 -8.31798539 6.87537654 -10.296875 6.1484375 C-10.626875 5.4884375 -10.956875 4.8284375 -11.296875 4.1484375 C-9.89233857 3.25409593 -8.47265631 2.38350558 -7.046875 1.5234375 C-6.25796875 1.03617188 -5.4690625 0.54890625 -4.65625 0.046875 C-2.296875 -0.8515625 -2.296875 -0.8515625 0 0 Z " fill="#B5BBC2" transform="translate(146.296875,170.8515625)"/>
<path d="M0 0 C2 2 2 2 2.375 5.125 C1.9356217 9.66524239 0.70175586 13.29525116 -2 17 C-2.99 17.33 -3.98 17.66 -5 18 C-5 15 -5 15 -3 12 C-2.40260055 9.95294775 -1.86590017 7.88766892 -1.375 5.8125 C-0.98441406 4.18248047 -0.98441406 4.18248047 -0.5859375 2.51953125 C-0.39257812 1.68808594 -0.19921875 0.85664063 0 0 Z " fill="#AFB7BE" transform="translate(196,140)"/>
<path d="M0 0 C0 1.65 0 3.3 0 5 C-1.5 6.125 -1.5 6.125 -4 7 C-6.7773082 6.57598348 -9.29639783 5.81108065 -12 5 C-7.65430977 1.45483165 -5.6329135 -0.14823457 0 0 Z " fill="#C9CED3" transform="translate(185,146)"/>
<path d="M0 0 C5.445 1.485 5.445 1.485 11 3 C11 3.33 11 3.66 11 4 C3.74 4 -3.52 4 -11 4 C-7.54941314 1.69960876 -5.05904498 1.5261725 -1 1 C-0.67 0.67 -0.34 0.34 0 0 Z " fill="#81D7FD" transform="translate(140,109)"/>
<path d="M0 0 C0.33 1.32 0.66 2.64 1 4 C-0.40453643 4.89434157 -1.82421869 5.76493192 -3.25 6.625 C-4.03890625 7.11226562 -4.8278125 7.59953125 -5.640625 8.1015625 C-8 9 -8 9 -10.296875 8.1484375 C-10.85890625 7.76945313 -11.4209375 7.39046875 -12 7 C-10.37554381 6.01993141 -8.75041739 5.04097364 -7.125 4.0625 C-6.22007812 3.51722656 -5.31515625 2.97195312 -4.3828125 2.41015625 C-2.94798364 1.56101983 -1.49124552 0.74562276 0 0 Z " fill="#898F98" transform="translate(164,133)"/>
<path d="M0 0 C1.44096586 0.42594588 2.87768712 0.86626633 4.3125 1.3125 C5.11300781 1.55613281 5.91351563 1.79976562 6.73828125 2.05078125 C9.09964573 3.04182023 10.33879993 4.08074943 12 6 C10.265625 7.1171875 10.265625 7.1171875 8 8 C5.859375 7.3203125 5.859375 7.3203125 3.75 6.125 C2.69039062 5.54105469 2.69039062 5.54105469 1.609375 4.9453125 C1.07828125 4.63335937 0.5471875 4.32140625 0 4 C0 2.68 0 1.36 0 0 Z " fill="#676E79" transform="translate(169,132)"/>
<path d="M0 0 C0.99 0.33 1.98 0.66 3 1 C2.3503125 2.24716797 2.3503125 2.24716797 1.6875 3.51953125 C1.130625 4.60621094 0.57375 5.69289063 0 6.8125 C-0.556875 7.89144531 -1.11375 8.97039062 -1.6875 10.08203125 C-3.20510619 12.92273466 -3.20510619 12.92273466 -3 16 C-4.65 16.33 -6.3 16.66 -8 17 C-5.36 11.39 -2.72 5.78 0 0 Z " fill="#41AAE9" transform="translate(86,120)"/>
<path d="M0 0 C2 2 2 2 3 5.0625 C3.65752556 8.12150806 3.65752556 8.12150806 6 9 C6.33 8.34 6.66 7.68 7 7 C7.36368892 8.60203467 7.71561952 10.20674203 8.0625 11.8125 C8.25972656 12.70582031 8.45695313 13.59914063 8.66015625 14.51953125 C9 17 9 17 8 20 C7.60167969 19.18595703 7.60167969 19.18595703 7.1953125 18.35546875 C6.84210938 17.64003906 6.48890625 16.92460938 6.125 16.1875 C5.60292969 15.12595703 5.60292969 15.12595703 5.0703125 14.04296875 C3.9343514 11.78753582 3.9343514 11.78753582 2 9 C1.3671875 6.73828125 1.3671875 6.73828125 0.875 4.3125 C0.70742187 3.50425781 0.53984375 2.69601563 0.3671875 1.86328125 C0.24601563 1.24839844 0.12484375 0.63351563 0 0 Z " fill="#79CBF2" transform="translate(130,52)"/>
<path d="M0 0 C1.41791408 0.45445964 2.83428046 0.91374944 4.25 1.375 C5.43335938 1.75785156 5.43335938 1.75785156 6.640625 2.1484375 C8.86627958 2.95173667 10.90931672 3.89711662 13 5 C13 5.99 13 6.98 13 8 C8.0276578 6.50829734 3.58154261 4.39542583 -1 2 C-0.67 1.34 -0.34 0.68 0 0 Z " fill="#6D747F" transform="translate(146,169)"/>
<path d="M0 0 C0.87707861 2.42444493 1.16772035 3.57996105 0.19555664 6.01464844 C-0.22862549 6.7059082 -0.65280762 7.39716797 -1.08984375 8.109375 C-1.54423828 8.86347656 -1.99863281 9.61757812 -2.46679688 10.39453125 C-2.95212891 11.17183594 -3.43746094 11.94914063 -3.9375 12.75 C-4.41896484 13.54277344 -4.90042969 14.33554688 -5.39648438 15.15234375 C-6.58674387 17.10861183 -7.78806991 19.05710972 -9 21 C-9.33 20.34 -9.66 19.68 -10 19 C-9.19555664 17.02880859 -9.19555664 17.02880859 -7.91015625 14.6484375 C-7.45576172 13.79765625 -7.00136719 12.946875 -6.53320312 12.0703125 C-5.80520508 10.73613281 -5.80520508 10.73613281 -5.0625 9.375 C-4.58103516 8.4778125 -4.09957031 7.580625 -3.60351562 6.65625 C-2.40941284 4.43356364 -1.20800619 2.21515174 0 0 Z " fill="#0E72C7" transform="translate(74,144)"/>
<path d="M0 0 C0.33 0 0.66 0 1 0 C1.33 2.31 1.66 4.62 2 7 C2.99 5.02 3.98 3.04 5 1 C5.33 1 5.66 1 6 1 C6 3.64 6 6.28 6 9 C5.01 9.33 4.02 9.66 3 10 C2.34 9.67 1.68 9.34 1 9 C1 10.98 1 12.96 1 15 C0.67 15 0.34 15 0 15 C0 10.05 0 5.1 0 0 Z " fill="#ABB1B9" transform="translate(158,159)"/>
<path d="M0 0 C4.10958767 1.45044271 7.43258745 3.51110752 11 6 C10.01 6.495 10.01 6.495 9 7 C7.948125 6.505 6.89625 6.01 5.8125 5.5 C1.96276533 3.71262319 -0.85092208 4.06857434 -5 5 C-3.35 3.35 -1.7 1.7 0 0 Z " fill="#757983" transform="translate(188,181)"/>
<path d="M0 0 C2 0 2 0 4.4375 2.375 C5.283125 3.24125 6.12875 4.1075 7 5 C7.99 5.66 8.98 6.32 10 7 C9.67 9.64 9.34 12.28 9 15 C8.67 15 8.34 15 8 15 C7.79375 13.96875 7.5875 12.9375 7.375 11.875 C6.1222129 7.33364678 3.38352434 5.16285971 0 2 C0 1.34 0 0.68 0 0 Z " fill="#70757F" transform="translate(170,167)"/>
<path d="M0 0 C2.625 0.375 2.625 0.375 5 1 C2.27521226 4.36591427 -1.06856792 5.44226276 -5 7 C-5 6.01 -5 5.02 -5 4 C-4.34 4 -3.68 4 -3 4 C-2.67 3.34 -2.34 2.68 -2 2 C-1.34 1.34 -0.68 0.68 0 0 Z " fill="#118CE5" transform="translate(144,122)"/>
<path d="M0 0 C0.99 0 1.98 0 3 0 C3 0.66 3 1.32 3 2 C4.65 2.33 6.3 2.66 8 3 C7 5 7 5 5.1875 5.8125 C3 6 3 6 0.75 4.5625 C0.1725 4.046875 -0.405 3.53125 -1 3 C-0.67 2.01 -0.34 1.02 0 0 Z " fill="#42ADF4" transform="translate(102,91)"/>
<path d="M0 0 C2.64 0.33 5.28 0.66 8 1 C8 1.66 8 2.32 8 3 C5.75 4.125 5.75 4.125 3 5 C0.6875 4.125 0.6875 4.125 -1 3 C-0.67 2.01 -0.34 1.02 0 0 Z " fill="#B3B8BF" transform="translate(173,151)"/>
<path d="M0 0 C1.15242187 0.00902344 2.30484375 0.01804687 3.4921875 0.02734375 C4.36101562 0.03894531 5.22984375 0.05054687 6.125 0.0625 C6.125 0.3925 6.125 0.7225 6.125 1.0625 C5.20976562 1.19527344 4.29453125 1.32804687 3.3515625 1.46484375 C2.16304687 1.64144531 0.97453125 1.81804687 -0.25 2 C-1.43335938 2.17402344 -2.61671875 2.34804687 -3.8359375 2.52734375 C-6.78202381 2.89712786 -6.78202381 2.89712786 -8.875 4.0625 C-11 3.125 -11 3.125 -12.875 2.0625 C-12.875 1.7325 -12.875 1.4025 -12.875 1.0625 C-8.52167264 0.22226812 -4.43057481 -0.04520995 0 0 Z " fill="#0975CF" transform="translate(138.875,112.9375)"/>
<path d="M0 0 C0.99 0 1.98 0 3 0 C7 6.75 7 6.75 7 9 C5.02 8.34 3.04 7.68 1 7 C1.66 6.67 2.32 6.34 3 6 C2.01 4.02 1.02 2.04 0 0 Z " fill="#89D2EF" transform="translate(158,110)"/>
<path d="M0 0 C1.32 0.66 2.64 1.32 4 2 C3.649375 2.598125 3.29875 3.19625 2.9375 3.8125 C1.66695302 6.10813214 1.66695302 6.10813214 3 9 C1.35 9.33 -0.3 9.66 -2 10 C-1.34 9.67 -0.68 9.34 0 9 C0 6.03 0 3.06 0 0 Z " fill="#BAC2C8" transform="translate(159,168)"/>
<path d="M0 0 C0.66 0.66 1.32 1.32 2 2 C1.67 2.99 1.34 3.98 1 5 C0.01 5.33 -0.98 5.66 -2 6 C-2.33 6.66 -2.66 7.32 -3 8 C-3.33 7.01 -3.66 6.02 -4 5 C-2 2 -2 2 0 0 Z " fill="#198CE2" transform="translate(117,78)"/>
<path d="M0 0 C2.31531305 2.31531305 3.07417343 3.86643316 4 7 C3.625 10.3125 3.625 10.3125 3 13 C1.32889958 10.03821227 0.67317248 7.62928808 0.375 4.25 C0.30023438 3.45078125 0.22546875 2.6515625 0.1484375 1.828125 C0.09945312 1.22484375 0.05046875 0.6215625 0 0 Z " fill="#51B2E9" transform="translate(125,33)"/>
<path d="M0 0 C0 1.98 0 3.96 0 6 C-1.65 5.67 -3.3 5.34 -5 5 C-2.74193548 0 -2.74193548 0 0 0 Z " fill="#979DA6" transform="translate(198,158)"/>
<path d="M0 0 C0.99 0.33 1.98 0.66 3 1 C2.01 1.66 1.02 2.32 0 3 C0 2.01 0 1.02 0 0 Z M-4 1 C-3.01 1.66 -2.02 2.32 -1 3 C-1.99 3.99 -2.98 4.98 -4 6 C-4.66 5.67 -5.32 5.34 -6 5 C-6 4.01 -6 3.02 -6 2 C-5.34 1.67 -4.68 1.34 -4 1 Z " fill="#309FED" transform="translate(122,86)"/>
<path d="M0 0 C0.99 0.99 1.98 1.98 3 3 C2.67 3.66 2.34 4.32 2 5 C-0.5625 5.625 -0.5625 5.625 -3 6 C-3 3 -3 3 -1.5 1.3125 C-0.7575 0.6628125 -0.7575 0.6628125 0 0 Z " fill="#4CB4FA" transform="translate(130,92)"/>
<path d="M0 0 C0.33 1.32 0.66 2.64 1 4 C1.66 4 2.32 4 3 4 C3 3.34 3 2.68 3 2 C3.66 2 4.32 2 5 2 C4.67 3.32 4.34 4.64 4 6 C3.01 6 2.02 6 1 6 C-0.0625 4.125 -0.0625 4.125 -1 2 C-0.67 1.34 -0.34 0.68 0 0 Z " fill="#117BCF" transform="translate(105,78)"/>
<path d="M0 0 C0.33 0.99 0.66 1.98 1 3 C-0.32 4.32 -1.64 5.64 -3 7 C-3.33 5.68 -3.66 4.36 -4 3 C-3.01 3 -2.02 3 -1 3 C-0.67 2.01 -0.34 1.02 0 0 Z " fill="#BABFC5" transform="translate(193,149)"/>
<path d="M0 0 C1.875 0.3125 1.875 0.3125 4 1 C4.66 1.99 5.32 2.98 6 4 C4.68 4.33 3.36 4.66 2 5 C1.34 3.35 0.68 1.7 0 0 Z " fill="#0956A4" transform="translate(133,130)"/>
<path d="M0 0 C2.97 0.495 2.97 0.495 6 1 C3.82575883 3.50037734 2.26954202 4.43628586 -1 5 C-0.67 3.35 -0.34 1.7 0 0 Z " fill="#2D97E2" transform="translate(146,125)"/>
<path d="" fill="#E6E8E7" transform="translate(0,0)"/>
</svg>
