<?xml version="1.0" standalone="no"?>
<!DOCTYPE svg PUBLIC "-//W3C//DTD SVG 20010904//EN"
 "http://www.w3.org/TR/2001/REC-SVG-20010904/DTD/svg10.dtd">
<svg version="1.0" xmlns="http://www.w3.org/2000/svg"
 width="500.000000pt" height="500.000000pt" viewBox="0 0 500.000000 500.000000"
 preserveAspectRatio="xMidYMid meet">
<g transform="translate(0.000000,500.000000) scale(0.100000,-0.100000)"
fill="#000000" stroke="none">
<path d="M2489 4323 c-6 -16 -22 -55 -34 -88 -13 -33 -32 -80 -43 -105 -11
-25 -52 -121 -92 -215 -40 -93 -80 -188 -90 -210 -10 -22 -32 -74 -50 -115
-18 -41 -47 -108 -66 -148 l-34 -74 71 -78 c39 -43 107 -111 152 -151 121
-108 113 -102 134 -90 11 6 13 11 5 11 -8 0 -10 5 -6 13 6 10 4 10 -7 0 -15
-15 -33 -17 -25 -4 3 5 -2 15 -11 22 -14 12 -16 12 -8 -1 6 -11 5 -12 -4 -4
-7 6 -14 20 -15 30 -2 11 -10 18 -19 16 -8 -1 -19 3 -23 9 -5 8 -2 10 7 5 8
-4 4 1 -7 11 -12 10 -27 27 -33 38 -11 18 -12 18 -7 1 5 -16 4 -17 -8 -7 -8 7
-12 20 -9 29 6 15 5 16 -12 2 -10 -8 -16 -10 -12 -4 4 7 -8 23 -28 38 -19 15
-35 32 -35 38 0 6 6 5 16 -3 23 -19 49 -22 34 -4 -7 8 -9 20 -5 27 4 7 -1 4
-9 -6 -15 -18 -21 -15 -17 8 1 5 -5 3 -14 -4 -18 -15 -27 -9 -29 22 -1 13 -6
22 -11 21 -6 0 -17 6 -25 15 -13 14 -12 15 5 9 20 -7 20 -7 1 8 -18 14 -15 20
9 15 5 -1 7 2 3 6 -4 4 -3 13 3 21 6 7 8 13 4 13 -4 0 -1 8 6 17 12 14 12 16
-1 9 -9 -4 -8 -1 3 7 9 8 17 19 17 26 0 6 4 19 9 29 15 26 25 55 26 72 0 8 8
14 17 14 11 -1 15 5 13 17 -5 24 29 101 40 91 5 -4 5 -1 1 6 -11 18 3 54 17
45 7 -4 6 1 -2 10 -12 15 -12 17 3 11 12 -5 15 -2 9 12 -4 10 -2 15 3 11 5 -3
11 3 12 14 1 10 3 28 4 38 1 11 7 17 12 14 5 -4 7 1 3 11 -5 13 3 28 27 52 18
18 31 36 28 39 -3 2 -11 -3 -18 -13 -7 -9 -14 -12 -14 -6 0 6 6 17 14 23 7 6
21 35 30 65 10 30 23 62 31 72 13 18 14 17 9 -6 -4 -21 -3 -22 5 -5 5 12 5 25
-1 32 -6 7 -5 14 2 18 6 3 8 11 5 16 -6 8 8 13 28 10 4 0 7 4 7 9 0 6 -4 10
-9 10 -5 0 -7 9 -4 20 3 11 9 17 14 15 4 -3 5 -13 2 -22 -4 -11 -3 -14 6 -9 8
5 11 3 10 -5 -3 -16 8 -64 22 -99 6 -13 12 -38 15 -56 2 -17 9 -44 15 -60 7
-16 11 -33 10 -38 -1 -4 4 -14 10 -22 9 -11 8 -18 -1 -29 -11 -13 -10 -14 3
-10 15 6 16 4 33 -60 10 -39 8 -32 29 -97 10 -32 23 -58 27 -58 5 0 6 -5 2
-11 -3 -6 0 -15 7 -20 12 -7 11 -9 -1 -9 -11 0 -12 -2 -2 -8 7 -5 20 -32 30
-60 10 -29 22 -49 27 -44 4 4 5 1 1 -6 -5 -8 -1 -19 10 -28 11 -9 13 -13 7 -9
-7 3 -13 1 -13 -5 0 -6 -4 -9 -8 -6 -4 2 -8 -4 -8 -15 0 -17 2 -18 11 -5 9 12
17 5 41 -37 50 -84 65 -132 44 -132 -5 0 -10 -3 -10 -7 0 -5 0 -11 0 -15 0 -3
9 2 20 12 20 19 29 8 9 -12 -8 -8 -7 -13 2 -18 8 -6 10 -4 4 5 -5 8 -3 11 6 8
8 -3 14 -9 15 -14 0 -5 7 -22 14 -39 7 -16 12 -37 11 -45 -1 -12 0 -12 7 -2 7
11 11 8 17 -10 4 -12 7 -26 6 -30 -1 -5 3 -8 8 -8 5 0 14 -15 21 -32 8 -18 20
-41 28 -51 8 -9 12 -20 9 -24 -4 -3 1 -11 10 -18 9 -7 17 -21 18 -31 0 -10 5
-21 10 -23 18 -7 57 -82 51 -97 -3 -8 -2 -12 4 -9 11 7 38 -44 35 -67 -2 -11
2 -15 13 -11 12 5 14 2 8 -12 -4 -11 -4 -16 0 -13 3 4 15 -3 25 -15 23 -27 25
-10 3 22 -81 115 -370 685 -448 882 -95 244 -207 613 -206 681 1 20 2 19 14
-7 7 -16 11 -33 9 -37 -2 -4 3 -21 12 -39 9 -17 14 -37 11 -45 -3 -9 -1 -12 4
-9 9 6 14 -10 13 -42 -1 -7 3 -10 8 -7 5 3 9 -2 9 -11 0 -9 5 -13 11 -9 7 4 7
-1 -1 -16 -8 -15 -8 -20 -1 -16 7 5 9 1 5 -8 -3 -9 -11 -13 -17 -9 -5 3 -7 2
-4 -4 4 -6 18 -9 32 -7 17 1 25 -2 22 -9 -3 -7 -10 -11 -16 -9 -7 1 -10 -2 -6
-7 3 -6 13 -7 23 -4 13 6 12 1 -5 -21 -19 -23 -22 -56 -6 -56 3 0 3 6 0 13 -7
19 8 41 22 32 9 -5 9 -10 0 -21 -10 -12 -9 -13 7 -7 17 6 18 5 4 -13 -14 -18
-14 -18 3 -5 15 12 17 11 18 -5 1 -11 1 -23 0 -28 -3 -15 32 -75 46 -80 17 -7
17 -3 -6 47 -11 23 -45 101 -76 172 -30 72 -60 132 -65 133 -6 2 -8 7 -5 12 5
8 -63 180 -71 180 -3 0 -9 -12 -15 -27z m-339 -983 c0 -5 -5 -10 -11 -10 -5 0
-7 5 -4 10 3 6 8 10 11 10 2 0 4 -4 4 -10z"/>
<path d="M2467 4167 c-3 -8 -1 -20 5 -28 8 -11 9 -11 5 3 -3 9 -1 18 6 21 8 2
8 5 0 10 -6 4 -13 1 -16 -6z"/>
<path d="M2633 3900 c10 -31 118 -303 143 -358 49 -107 195 -404 238 -481 84
-149 100 -177 153 -269 33 -55 59 -90 65 -86 7 5 8 2 3 -6 -5 -8 5 -24 28 -45
28 -26 33 -35 21 -39 -8 -3 -13 -2 -10 3 7 11 -115 66 -190 85 -298 76 -617
34 -937 -123 -125 -62 -147 -74 -232 -127 -228 -143 -296 -183 -327 -194 -28
-10 -41 -25 -66 -74 -18 -34 -70 -135 -117 -226 -47 -91 -83 -171 -80 -177 2
-7 0 -12 -6 -10 -8 2 -389 -732 -389 -749 0 -5 14 3 200 108 223 127 399 206
620 278 119 39 394 110 428 110 29 0 30 6 15 62 -19 77 -16 265 6 376 35 166
125 306 226 348 51 21 138 18 195 -7 l49 -21 75 38 c41 21 72 43 69 48 -3 5
-1 6 5 2 13 -8 492 231 492 244 0 5 -9 25 -21 44 -12 20 -17 41 -13 48 5 9 2
9 -10 -1 -9 -8 -16 -10 -15 -5 5 15 -12 54 -22 54 -6 0 -8 4 -4 10 3 5 -8 16
-25 25 -16 8 -30 18 -30 21 0 2 10 0 21 -7 17 -9 20 -8 16 3 -2 7 -10 12 -17
10 -6 -1 -10 3 -8 10 6 18 -141 314 -154 310 -6 -2 -8 4 -5 13 8 18 -67 177
-78 167 -5 -4 -5 -2 -2 5 4 6 -9 47 -29 90 -74 158 -91 198 -98 221 -4 12 -12
22 -17 22 -6 0 -7 5 -4 10 4 6 1 18 -6 26 -7 9 -14 23 -15 31 -4 24 -13 27
-20 8 -4 -9 -3 -20 2 -24 12 -8 18 -44 6 -37 -6 3 -12 3 -15 -1 -2 -5 -3 -3
-1 3 1 6 -3 17 -9 23 -6 6 -7 11 -2 11 4 0 1 8 -7 18 -9 9 -18 33 -22 52 -3
19 -3 29 0 22 3 -6 11 -9 17 -5 7 4 8 0 4 -11 -4 -10 -3 -15 3 -11 14 9 12 -9
-2 -24 -11 -11 -9 -11 10 -2 26 14 28 24 6 45 -16 16 -28 20 -53 16 -9 -1 -12
4 -8 14 3 8 -1 22 -9 31 -8 8 -12 21 -8 27 4 7 3 9 -1 5 -5 -4 -15 3 -23 15
-7 13 -11 16 -9 8z m176 -291 c11 -21 15 -37 10 -33 -5 3 -9 0 -9 -5 0 -6 0
-14 0 -18 0 -4 8 -8 18 -8 13 0 16 -7 14 -30 -2 -23 0 -26 8 -15 8 12 10 10
10 -11 0 -16 7 -30 17 -33 14 -6 14 -8 -3 -22 -10 -9 -14 -13 -8 -10 7 3 17
-1 24 -9 7 -8 9 -15 5 -15 -5 0 0 -9 10 -20 10 -11 20 -32 21 -46 2 -14 10
-34 18 -43 9 -10 16 -25 16 -35 0 -11 5 -15 13 -10 6 4 4 -1 -5 -11 -20 -22
-29 -16 -32 19 0 13 -5 24 -9 23 -4 -1 -14 13 -22 31 -10 24 -11 31 -2 27 7
-4 3 0 -7 9 -19 16 -61 94 -57 109 1 4 -6 15 -14 24 -14 14 -14 18 1 42 17 26
17 26 -3 8 -20 -17 -21 -17 -28 0 -4 10 -9 29 -11 43 -3 14 -9 26 -14 28 -5 2
-6 10 -3 19 4 11 2 14 -5 9 -15 -9 -15 7 0 22 15 15 25 8 47 -39z m177 -388
c-3 -5 1 -14 9 -21 8 -7 13 -16 10 -20 -3 -5 -1 -11 4 -15 6 -3 8 -12 5 -20
-4 -8 1 -18 10 -21 9 -3 16 -11 16 -16 0 -6 -7 -7 -16 -4 -8 3 -12 2 -9 -4 3
-6 12 -10 20 -10 7 0 20 -14 29 -30 8 -17 11 -28 7 -26 -4 3 -8 -1 -8 -8 0 -8
6 -12 12 -10 7 3 11 -4 11 -18 -1 -16 4 -22 14 -20 8 2 12 0 7 -4 -4 -4 0 -15
9 -25 11 -12 12 -19 4 -24 -13 -8 -21 -3 -24 17 -1 7 -12 28 -24 45 -12 17
-22 36 -22 42 0 6 -4 11 -9 11 -5 0 -12 7 -15 16 -4 10 -2 13 7 8 6 -4 2 3
-10 15 -14 13 -20 27 -16 38 4 10 2 14 -4 10 -6 -4 -14 0 -17 9 -3 8 -2 12 4
9 6 -3 10 1 10 9 0 10 -6 13 -17 9 -16 -6 -16 -5 -4 10 12 15 12 17 -4 11 -13
-5 -16 -4 -11 4 4 7 2 12 -5 12 -8 0 -8 4 1 15 13 16 35 21 26 6z m155 -313
c1 -7 1 -19 0 -27 -2 -8 2 -10 10 -5 8 4 10 3 5 -4 -4 -7 -2 -12 4 -12 6 0 8
-5 5 -10 -4 -6 -14 -1 -25 12 -13 17 -15 25 -7 30 8 5 6 8 -6 8 -10 0 -15 5
-12 10 9 14 25 12 26 -2z m79 -142 c0 -3 -4 -8 -10 -11 -5 -3 -10 -1 -10 4 0
6 5 11 10 11 6 0 10 -2 10 -4z m-276 -62 c27 -7 52 -12 54 -9 3 3 -1 5 -8 5
-7 0 -11 3 -8 6 3 3 26 0 49 -7 24 -7 49 -13 54 -13 6 -1 20 -7 33 -14 12 -7
27 -10 32 -7 6 3 10 1 10 -4 0 -6 9 -11 19 -11 11 0 23 -5 26 -10 4 -6 11 -7
17 -4 6 4 8 2 4 -4 -3 -6 3 -13 14 -17 11 -3 20 -11 20 -17 0 -6 -7 -5 -17 3
-15 12 -16 12 -10 -3 4 -13 2 -15 -10 -11 -11 4 -14 2 -9 -5 4 -7 2 -13 -3
-13 -26 -3 -30 -4 -37 -11 -15 -16 -26 -7 -13 10 11 15 11 15 -1 4 -8 -7 -15
-18 -15 -24 0 -6 -7 -14 -15 -18 -8 -4 -26 -12 -39 -19 -19 -10 -22 -10 -16 1
4 7 1 6 -7 -2 -7 -8 -26 -21 -42 -28 -25 -11 -31 -10 -49 5 l-20 18 19 -30
c18 -30 18 -30 -1 -15 -10 8 -16 10 -12 3 4 -7 -5 -18 -24 -27 -39 -19 -42
-20 -34 -3 4 6 0 4 -8 -5 -16 -20 -32 -25 -21 -6 4 7 3 8 -4 4 -6 -4 -8 -14
-5 -23 4 -11 3 -14 -5 -9 -7 4 -12 1 -13 -6 0 -10 -2 -10 -6 0 -3 9 -13 6 -36
-10 -18 -12 -33 -25 -35 -29 -1 -3 -31 21 -65 55 -70 69 -109 86 -204 86 -48
0 -68 -5 -105 -29 -111 -71 -203 -243 -249 -466 -15 -75 -15 -373 0 -388 8 -8
11 -7 12 3 0 9 4 7 8 -5 9 -21 4 -45 -9 -45 -4 0 -7 8 -6 18 1 14 -6 16 -43
14 -102 -8 -358 -93 -540 -178 -63 -30 -116 -54 -117 -54 -2 0 -3 5 -2 11 2 6
-4 14 -12 16 -13 4 -13 3 0 -6 13 -9 13 -11 -2 -11 -9 0 -19 -4 -22 -9 -4 -5
3 -7 14 -4 35 9 22 -4 -32 -32 -29 -15 -72 -41 -95 -56 -23 -16 -44 -29 -47
-29 -6 0 -53 -31 -195 -126 -35 -24 -69 -40 -74 -37 -8 4 -7 8 1 11 7 2 10 8
6 13 -3 5 0 9 6 9 6 0 8 5 5 10 -3 6 -1 10 5 10 6 0 9 4 6 9 -4 5 -3 11 2 13
13 5 53 89 47 99 -3 5 1 6 11 2 14 -5 15 -3 4 18 -13 24 -13 24 8 6 15 -14 22
-15 28 -6 4 7 3 10 -4 5 -16 -10 -33 27 -20 45 8 11 9 11 4 -3 -9 -29 -2 -21
33 32 18 28 30 57 27 66 -3 8 -2 12 4 9 6 -3 11 2 12 12 0 10 2 23 3 28 2 17
75 155 121 232 24 39 44 74 44 77 0 3 13 26 30 52 16 26 27 51 23 57 -3 6 -1
7 5 3 11 -7 17 6 13 27 -1 5 3 6 8 3 12 -8 25 30 15 46 -4 7 -4 10 1 6 8 -8
34 20 35 37 0 6 -5 3 -10 -5 -6 -9 -10 -10 -10 -3 0 7 9 17 20 23 11 6 20 17
20 25 0 8 5 15 10 15 6 0 10 -9 10 -20 0 -11 -5 -20 -11 -20 -5 0 -7 -4 -4
-10 3 -5 1 -10 -4 -10 -6 0 -11 -4 -11 -10 0 -24 18 -7 37 36 13 28 17 44 9
41 -7 -3 -18 4 -24 14 -7 10 -8 19 -3 19 5 0 14 14 22 32 7 17 15 26 17 18 3
-7 19 14 36 46 19 36 39 60 51 63 11 2 39 16 62 32 23 16 46 29 52 29 6 0 11
5 11 10 0 6 8 10 18 10 10 0 24 9 31 19 8 11 22 18 32 16 10 -2 18 -1 18 3 -3
19 3 22 22 11 14 -7 19 -7 15 0 -4 5 1 18 11 26 26 24 161 106 177 109 7 1 21
10 31 19 15 16 20 16 39 3 19 -12 23 -12 23 -1 0 8 -4 12 -8 9 -4 -2 -10 -1
-13 4 -3 5 1 9 9 10 8 1 22 3 29 4 8 1 14 6 13 11 -1 5 4 12 12 15 8 3 11 0 7
-7 -4 -6 -2 -11 3 -11 6 0 11 6 11 13 0 20 43 37 62 26 11 -6 19 -5 24 2 5 8
3 9 -6 4 -9 -5 -11 -4 -6 3 6 10 62 30 110 39 11 2 25 8 32 14 8 6 19 9 26 6
7 -2 28 2 47 9 41 17 44 17 35 2 -4 -7 -3 -8 5 -4 7 4 29 10 50 12 21 3 58 9
82 14 55 11 189 3 253 -16z m-392 -242 c-1 -8 2 -11 8 -7 6 3 8 11 4 16 -8 14
78 -21 96 -39 8 -8 9 -12 3 -8 -9 5 -11 2 -7 -8 3 -9 12 -12 21 -9 11 4 14 2
9 -5 -4 -8 -2 -10 7 -6 8 3 17 -2 21 -11 3 -9 2 -13 -4 -10 -5 3 -7 -1 -4 -9
3 -8 11 -13 18 -10 7 3 13 -2 13 -11 0 -11 -7 -15 -18 -12 -9 3 -23 0 -30 -5
-11 -8 -10 -8 4 -4 10 3 16 2 13 -3 -3 -5 -17 -11 -31 -13 -20 -4 -23 -2 -15
7 8 10 7 15 -1 21 -8 5 -9 3 -4 -6 6 -10 4 -12 -8 -7 -10 3 -17 2 -17 -3 0 -5
-9 -2 -19 7 -11 9 -18 19 -16 23 2 3 -5 6 -15 6 -15 0 -16 -3 -8 -13 9 -11 6
-12 -13 -5 -51 19 -81 23 -73 11 5 -9 2 -10 -10 -6 -9 4 -31 0 -48 -9 -16 -9
-27 -11 -24 -6 4 6 1 14 -5 18 -7 4 -9 3 -6 -3 4 -6 -2 -21 -13 -33 l-20 -23
0 23 c0 27 -7 24 -12 -5 -3 -22 -34 -49 -46 -41 -4 2 -9 -5 -9 -16 -1 -11 -12
-32 -25 -45 -12 -13 -23 -30 -23 -36 -2 -24 -17 -47 -28 -40 -6 4 -8 0 -4 -10
7 -19 -11 -67 -25 -67 -4 0 -8 -8 -8 -17 0 -15 2 -16 10 -3 14 22 12 3 -4 -28
-7 -15 -12 -37 -11 -49 1 -12 -2 -20 -7 -17 -4 3 -6 17 -2 32 3 15 7 41 9 57
1 17 7 44 13 62 6 17 8 34 4 37 -3 3 0 6 7 6 6 0 11 6 10 13 -4 21 13 67 22
61 5 -3 6 1 3 9 -2 7 8 26 23 42 15 16 22 25 15 21 -10 -6 -10 -2 -1 18 7 14
16 23 20 20 5 -3 6 2 3 10 -4 10 -1 16 9 16 9 0 19 5 23 12 4 7 3 8 -4 4 -7
-4 -12 -3 -12 2 0 11 47 52 61 52 5 0 7 6 3 13 -5 8 -2 7 9 -2 15 -12 17 -12
11 2 -4 12 3 19 28 26 18 5 26 10 18 10 -13 1 -13 2 0 11 23 15 116 8 112 -8z
m-992 -273 c-7 -11 -14 -19 -16 -16 -7 7 7 37 17 37 6 0 5 -9 -1 -21z m-130
-249 c0 -5 -5 -10 -11 -10 -5 0 -7 5 -4 10 3 6 8 10 11 10 2 0 4 -4 4 -10z
m689 -372 c11 -10 13 -10 7 0 -12 21 8 13 22 -9 12 -19 11 -20 -9 -14 -13 5
-19 3 -15 -3 4 -6 -2 -8 -14 -5 -12 3 -20 0 -20 -8 0 -7 -3 -9 -6 -6 -4 3 -16
2 -27 -4 -14 -8 -18 -8 -13 0 4 6 4 12 -1 12 -51 7 -66 7 -54 0 8 -5 21 -7 30
-4 12 3 11 0 -3 -11 -19 -15 -32 -18 -86 -19 -14 -1 -29 -7 -35 -14 -5 -7 -29
-14 -52 -16 -24 -1 -48 -8 -55 -15 -7 -7 -17 -12 -23 -12 -5 0 -3 5 5 10 13 8
12 10 -2 10 -10 0 -18 -5 -18 -10 0 -13 -41 -29 -58 -23 -10 4 -10 9 -1 20 8
9 16 10 22 4 6 -6 16 -3 28 7 19 17 23 18 55 21 8 0 13 5 10 10 -9 14 16 19
43 9 16 -6 28 -5 35 2 8 8 6 9 -5 5 -10 -4 -19 -2 -23 3 -3 5 8 8 24 7 16 -1
31 4 34 12 3 7 13 12 23 12 17 -1 17 -2 1 -6 -10 -2 -18 -9 -18 -14 0 -4 11
-3 25 3 14 6 25 15 25 19 0 4 12 8 28 9 58 2 80 5 80 10 -2 23 20 27 41 8z
m-443 -143 c12 -12 13 -15 2 -17 -22 -2 -32 -5 -50 -12 -15 -7 -41 -13 -61
-15 -5 -1 -5 -5 -2 -11 4 -6 -1 -7 -11 -3 -13 5 -15 3 -9 -7 5 -9 4 -11 -4 -6
-6 4 -23 0 -37 -9 -24 -15 -24 -15 -12 4 6 11 15 18 19 15 4 -2 13 1 21 8 7 7
20 14 28 16 8 2 22 9 30 16 8 8 21 11 29 8 9 -3 11 0 6 8 -6 9 -3 9 14 1 17
-10 20 -9 15 4 -8 19 3 19 22 0z m-255 -118 c-10 -9 -11 -8 -5 6 3 10 9 15 12
12 3 -3 0 -11 -7 -18z"/>
<path d="M3120 2650 c0 -15 21 -23 32 -12 6 6 2 11 -11 15 -12 3 -21 1 -21 -3z"/>
<path d="M3105 2620 c3 -5 8 -10 11 -10 2 0 4 5 4 10 0 6 -5 10 -11 10 -5 0
-7 -4 -4 -10z"/>
<path d="M3046 2585 c-11 -8 -16 -15 -10 -15 5 0 18 7 28 15 11 8 16 15 10 15
-5 0 -18 -7 -28 -15z"/>
<path d="M3133 2583 c0 -9 4 -10 14 -2 7 6 13 12 13 14 0 1 -6 2 -13 2 -8 0
-14 -6 -14 -14z"/>
<path d="M2635 2481 c33 -17 73 -45 89 -63 16 -18 25 -27 21 -20 -3 7 -1 21 7
30 11 15 11 16 -3 4 -13 -10 -19 -9 -29 3 -17 21 -88 61 -120 69 -14 4 2 -7
35 -23z"/>
<path d="M1995 2470 c-3 -6 1 -7 9 -4 18 7 21 14 7 14 -6 0 -13 -4 -16 -10z"/>
<path d="M2773 2427 c-3 -5 0 -14 6 -20 9 -9 10 -7 5 7 -5 13 -4 17 4 12 6 -3
13 -3 16 2 3 5 -2 9 -10 9 -8 0 -17 -4 -21 -10z"/>
<path d="M2175 2269 c-4 -6 -5 -12 -2 -15 2 -3 7 2 10 11 7 17 1 20 -8 4z"/>
<path d="M1604 2218 c-14 -27 -14 -31 -2 -21 8 7 19 9 23 5 5 -4 5 -1 1 6 -4
7 -2 19 4 27 9 10 9 15 1 15 -6 0 -18 -15 -27 -32z"/>
<path d="M2190 2220 c-6 -11 -8 -20 -6 -20 3 0 10 9 16 20 6 11 8 20 6 20 -3
0 -10 -9 -16 -20z"/>
<path d="M1555 2125 c-9 -20 -14 -39 -11 -42 2 -3 12 12 21 32 20 49 13 57
-10 10z"/>
<path d="M1520 2109 c-7 -11 -10 -23 -7 -25 2 -2 9 7 15 21 14 30 7 33 -8 4z"/>
<path d="M1422 1878 c-5 -7 -17 -29 -26 -48 -14 -29 -14 -31 -1 -16 8 11 15
25 15 30 0 6 5 4 11 -4 9 -12 10 -12 5 4 -4 10 -1 25 5 32 6 8 9 14 6 14 -2 0
-9 -6 -15 -12z"/>
<path d="M1350 1761 c-13 -25 -13 -31 2 -31 6 0 8 3 5 7 -4 3 0 15 10 25 9 10
11 18 5 18 -6 0 -16 -9 -22 -19z"/>
<path d="M1311 1679 c-7 -12 -10 -23 -8 -26 3 -3 11 5 17 17 6 12 10 23 8 25
-2 2 -10 -5 -17 -16z"/>
<path d="M1276 1633 c-6 -14 -5 -15 5 -6 7 7 10 15 7 18 -3 3 -9 -2 -12 -12z"/>
<path d="M1257 1596 c-4 -10 -1 -13 8 -9 8 3 12 9 9 14 -7 12 -11 11 -17 -5z"/>
<path d="M1229 1545 c-7 -16 -20 -38 -28 -48 -15 -18 -23 -89 -9 -80 5 2 8 10
6 16 -3 18 12 60 30 80 8 9 11 17 6 17 -5 0 -3 4 5 9 7 5 11 15 9 22 -4 9 -10
3 -19 -16z"/>
<path d="M1580 1459 c0 -5 5 -7 10 -4 6 3 10 8 10 11 0 2 -4 4 -10 4 -5 0 -10
-5 -10 -11z"/>
<path d="M1557 1439 c7 -7 15 -10 18 -7 3 3 -2 9 -12 12 -14 6 -15 5 -6 -5z"/>
<path d="M1369 1358 c-6 -21 -5 -37 2 -32 5 3 6 10 3 16 -5 7 -1 9 9 5 10 -3
17 -2 17 3 0 8 -28 15 -31 8z"/>
<path d="M1292 1304 c-14 -16 -5 -18 17 -5 7 5 9 11 5 14 -5 3 -15 -1 -22 -9z"/>
<path d="M1250 1270 c-9 -6 -10 -10 -3 -10 6 0 15 5 18 10 8 12 4 12 -15 0z"/>
<path d="M1156 1208 c5 -7 2 -9 -8 -6 -8 4 -15 0 -15 -7 0 -10 5 -11 19 -4 16
9 17 29 2 29 -3 0 -2 -5 2 -12z"/>
<path d="M1075 1149 c-4 -6 -13 -8 -21 -5 -7 3 -15 2 -18 -2 -9 -14 33 -11 45
4 6 8 9 14 6 14 -3 0 -9 -5 -12 -11z"/>
<path d="M2478 2463 c6 -2 18 -2 25 0 6 3 1 5 -13 5 -14 0 -19 -2 -12 -5z"/>
<path d="M2359 2383 c-12 -16 -12 -17 2 -6 9 7 20 9 24 5 5 -4 5 -1 1 6 -9 16
-11 15 -27 -5z"/>
<path d="M2256 2223 c-6 -14 -5 -15 5 -6 7 7 10 15 7 18 -3 3 -9 -2 -12 -12z"/>
<path d="M2586 3813 c-6 -14 -5 -15 5 -6 7 7 10 15 7 18 -3 3 -9 -2 -12 -12z"/>
<path d="M2280 3757 c0 -2 6 -10 14 -16 11 -9 16 -9 22 1 4 7 4 10 -1 6 -4 -4
-14 -3 -22 3 -7 6 -13 9 -13 6z"/>
<path d="M2651 3617 c2 -1 13 -9 24 -17 19 -14 19 -14 6 3 -7 9 -18 17 -24 17
-6 0 -8 -1 -6 -3z"/>
<path d="M2210 3606 c0 -2 8 -10 18 -17 15 -13 16 -12 3 4 -13 16 -21 21 -21
13z"/>
<path d="M2640 3591 c0 -10 19 -25 25 -20 1 2 -3 10 -11 17 -8 7 -14 8 -14 3z"/>
<path d="M2206 3571 c-4 -5 -2 -12 3 -15 5 -4 12 -2 15 3 4 5 2 12 -3 15 -5 4
-12 2 -15 -3z"/>
<path d="M2007 3213 c-145 -335 -231 -523 -357 -774 -49 -98 -86 -179 -82
-179 8 0 36 30 41 45 2 6 8 22 13 38 6 15 13 27 17 27 4 0 7 10 8 22 1 11 8
25 15 29 20 12 23 1 5 -18 -8 -10 -16 -22 -17 -28 -1 -5 -8 -25 -17 -43 -9
-18 -13 -35 -11 -38 3 -2 25 36 49 85 24 49 46 88 49 86 4 -3 8 16 13 67 1 9
4 15 8 13 11 -7 62 112 54 125 -5 8 -4 11 2 7 11 -7 19 6 58 97 14 33 23 66
20 73 -2 8 -1 12 4 9 5 -3 19 18 31 47 12 28 30 70 40 92 43 95 69 168 64 176
-3 5 0 9 7 9 6 0 9 8 6 20 -3 11 -1 18 4 14 5 -3 9 0 9 6 0 6 5 8 10 5 6 -4 8
-11 5 -16 -3 -5 2 -6 12 -3 15 5 14 3 -3 -13 -21 -18 -52 -89 -34 -78 6 4 10
12 10 19 0 21 40 67 52 60 7 -5 4 -12 -7 -21 -17 -12 -17 -13 -2 -13 9 0 17 4
17 9 0 6 9 9 20 8 11 -1 20 -5 20 -9 0 -4 7 -8 15 -8 8 0 15 -5 15 -11 0 -5
-4 -8 -9 -4 -5 3 -13 0 -17 -7 -4 -7 -4 -10 1 -6 4 4 16 -2 26 -14 11 -11 19
-16 19 -10 0 7 5 12 11 12 6 0 8 -8 5 -17 -6 -17 -5 -17 8 0 16 20 27 22 20 3
-3 -8 0 -17 7 -22 8 -5 10 -3 4 7 -5 8 3 4 17 -9 14 -13 35 -24 47 -25 13 -1
20 -6 17 -14 -3 -8 1 -10 11 -6 12 5 14 3 8 -7 -5 -7 -4 -11 1 -7 5 3 27 -3
48 -14 22 -10 41 -17 43 -15 8 7 -42 47 -87 70 -64 33 -121 65 -152 87 -14 11
-29 19 -33 19 -3 0 -33 18 -65 40 -32 22 -63 40 -68 40 -5 0 -16 -17 -25 -37z
m187 -84 c-3 -5 -10 -7 -15 -3 -5 3 -7 10 -3 15 3 5 10 7 15 3 5 -3 7 -10 3
-15z m-291 -224 c-3 -9 -8 -14 -10 -11 -3 3 -2 9 2 15 9 16 15 13 8 -4z m-90
-195 c-3 -12 -8 -19 -11 -16 -5 6 5 36 12 36 2 0 2 -9 -1 -20z m-55 -125 c-6
-14 -13 -24 -14 -22 -6 6 9 47 17 47 5 0 3 -11 -3 -25z m-38 -70 c0 -24 -22
-65 -33 -58 -5 3 -4 9 3 13 7 4 13 19 13 34 2 27 17 37 17 11z"/>
<path d="M2466 3039 c4 -8 -1 -9 -17 -4 -19 6 -22 5 -12 -5 6 -7 19 -10 27 -7
18 7 22 27 5 27 -5 0 -7 -5 -3 -11z"/>
<path d="M1983 3012 c-1 -22 0 -24 9 -8 6 10 6 22 2 26 -5 5 -10 -3 -11 -18z"/>
<path d="M1965 2959 c-4 -6 -5 -12 -2 -15 2 -3 7 2 10 11 7 17 1 20 -8 4z"/>
<path d="M1766 2822 c-3 -5 1 -9 9 -9 8 0 12 4 9 9 -3 4 -7 8 -9 8 -2 0 -6 -4
-9 -8z"/>
<path d="M3850 2639 c0 -5 5 -7 10 -4 6 3 10 8 10 11 0 2 -4 4 -10 4 -5 0 -10
-5 -10 -11z"/>
<path d="M2170 2636 c0 -2 7 -7 16 -10 8 -3 12 -2 9 4 -6 10 -25 14 -25 6z"/>
<path d="M3797 2538 c-26 -45 -46 -86 -43 -92 2 -6 11 6 20 27 9 20 30 60 47
88 17 27 30 52 27 54 -2 2 -25 -32 -51 -77z"/>
<path d="M3631 2560 c0 -8 14 -42 30 -75 16 -33 26 -49 23 -36 -9 35 -54 129
-53 111z"/>
<path d="M3372 2413 l3 -118 77 -40 c42 -22 79 -42 82 -45 3 -3 -50 -34 -117
-69 l-122 -63 -85 41 c-95 46 -107 55 -89 66 8 5 10 4 5 -3 -11 -18 0 -15 62
20 31 18 71 40 87 49 l30 16 3 112 c2 71 -1 111 -8 111 -5 0 -145 -66 -310
-146 l-299 -147 -3 -311 c-2 -171 -1 -315 0 -319 4 -9 120 53 170 91 l32 24 0
134 0 133 -27 15 -28 14 3 -163 c3 -144 1 -163 -14 -169 -12 -4 -15 -2 -11 9
4 8 1 17 -5 21 -6 4 -9 3 -6 -2 3 -5 1 -20 -4 -34 -7 -20 -11 -22 -18 -10 -8
13 -10 12 -10 -3 0 -11 -4 -15 -12 -11 -7 5 -8 3 -3 -6 6 -10 4 -12 -9 -7 -10
4 -21 7 -24 7 -4 0 0 5 8 10 13 8 12 10 -3 10 -13 0 -16 -6 -13 -25 3 -14 1
-25 -4 -25 -5 0 -9 128 -9 300 0 279 1 299 17 292 62 -26 162 -84 157 -91 -3
-5 4 -7 15 -4 11 3 20 0 20 -6 0 -6 7 -8 17 -4 11 4 14 3 9 -5 -5 -8 -1 -10
10 -5 10 4 15 2 11 -3 -3 -6 3 -10 13 -11 24 -2 70 -32 70 -47 0 -8 2 -8 8 0
5 7 36 -3 95 -31 48 -23 85 -44 82 -47 -3 -3 7 -8 23 -11 l29 -6 1 -117 c1
-64 4 -119 7 -122 3 -3 5 52 5 122 l0 127 -152 73 c-84 40 -216 104 -293 141
l-140 67 140 69 c91 46 146 67 160 63 15 -4 16 -3 6 4 -10 8 -2 15 34 31 26
11 52 18 58 14 5 -3 7 -1 4 4 -8 13 20 26 35 16 6 -3 8 -2 5 4 -5 7 130 83
148 83 3 0 5 -31 5 -70 l0 -70 -50 -25 c-28 -14 -48 -30 -45 -36 6 -9 18 -6
44 15 7 5 19 11 27 12 10 2 9 -4 -4 -22 -9 -13 -20 -24 -24 -24 -4 0 -14 -7
-22 -16 -9 -8 -16 -11 -16 -5 0 6 -5 11 -11 11 -5 0 -7 -4 -4 -10 6 -10 -8
-14 -35 -10 -8 1 -12 -2 -8 -6 5 -4 -5 -15 -22 -25 -22 -14 -36 -16 -52 -9
-13 5 -18 9 -13 10 36 5 50 11 72 32 20 19 26 20 34 8 9 -12 10 -12 5 3 -4 13
0 17 16 17 16 0 19 3 11 11 -8 8 -33 0 -93 -31 l-81 -43 132 -65 132 -66 106
54 c197 102 258 140 221 140 -5 0 -62 24 -125 54 l-115 55 0 75 c0 42 2 76 6
76 3 0 36 -13 75 -30 38 -16 69 -27 69 -25 0 7 -131 65 -147 65 -12 0 -14 -21
-11 -117z m121 -116 c6 3 7 2 4 -4 -4 -6 5 -15 18 -21 17 -8 25 -8 25 -1 0 6
7 3 16 -5 8 -9 19 -14 24 -11 5 3 11 1 15 -5 3 -5 3 -10 -2 -11 -4 0 -16 -2
-25 -4 -9 -2 -22 3 -28 10 -6 7 -20 10 -32 7 -15 -4 -19 -2 -14 7 5 8 3 11 -5
10 -20 -4 -61 20 -54 32 4 5 2 9 -4 9 -5 0 -11 -3 -14 -7 -2 -5 -3 -3 -1 3 1
6 -3 17 -9 23 -7 7 8 1 32 -13 25 -13 49 -22 54 -19z m-614 -381 c-1 -16 -2
-17 -6 -3 -2 9 -9 17 -14 17 -5 0 -9 4 -9 10 0 5 7 7 15 4 8 -4 14 -16 14 -28z
m-15 -158 c-1 -27 2 -46 7 -42 14 8 11 -12 -4 -24 -10 -9 -13 5 -15 71 -1 49
2 74 7 62 4 -10 7 -41 5 -67z"/>
<path d="M3576 2507 c3 -10 9 -15 12 -12 3 3 0 11 -7 18 -10 9 -11 8 -5 -6z"/>
<path d="M3540 2464 c0 -2 18 -12 40 -23 22 -10 40 -16 40 -12 0 5 -18 15 -40
24 -22 8 -40 14 -40 11z"/>
<path d="M1730 2450 c-9 -6 -10 -10 -3 -10 6 0 15 5 18 10 8 12 4 12 -15 0z"/>
<path d="M3429 2458 c-5 -18 -6 -38 -1 -34 7 8 12 36 6 36 -2 0 -4 -1 -5 -2z"/>
<path d="M1765 2430 c-8 -13 15 -24 27 -12 6 6 4 11 -6 15 -8 3 -18 2 -21 -3z"/>
<path d="M3825 2415 c-33 -13 -53 -24 -45 -24 8 0 42 11 75 24 33 13 53 24 45
24 -8 0 -42 -11 -75 -24z"/>
<path d="M3630 2425 c0 -4 60 -35 67 -35 1 0 3 4 3 8 0 5 -16 13 -35 19 -19 6
-35 10 -35 8z"/>
<path d="M3604 2388 c-4 -7 -2 -8 4 -4 7 4 12 2 12 -4 0 -7 7 -9 16 -6 8 3 24
1 35 -4 10 -6 19 -8 19 -6 0 19 -77 39 -86 24z"/>
<path d="M3281 2364 c0 -11 3 -14 6 -6 3 7 2 16 -1 19 -3 4 -6 -2 -5 -13z"/>
<path d="M3755 2363 c6 -6 48 -25 95 -43 115 -45 118 -48 73 -72 -44 -24 -88
-48 -233 -131 -58 -33 -129 -73 -157 -89 -29 -16 -53 -32 -53 -34 0 -10 37 2
65 22 48 34 92 54 100 46 5 -4 5 -1 1 6 -4 6 -2 12 3 12 6 0 13 0 16 0 3 0 37
21 76 46 39 25 77 47 84 48 8 1 23 10 35 21 11 10 20 14 20 9 0 -5 4 -3 9 5 5
8 19 16 31 18 21 3 21 2 20 -189 0 -106 1 -208 4 -225 2 -18 0 -33 -4 -33 -4
0 -5 -11 -2 -25 3 -19 0 -25 -12 -25 -25 0 -57 20 -51 31 4 5 1 9 -4 9 -6 0
-11 5 -11 11 0 8 5 8 15 -1 8 -7 13 -16 10 -20 -3 -4 2 -11 10 -14 12 -4 13
-2 5 13 -5 11 -7 21 -2 24 4 2 2 2 -5 1 -7 -2 -15 1 -18 7 -4 5 -10 7 -14 5
-4 -3 -18 16 -30 41 -18 37 -20 48 -9 54 9 6 9 9 1 9 -25 0 -22 -21 15 -97 37
-78 38 -78 80 -81 l42 -3 1 158 c0 87 1 197 2 245 1 47 -1 84 -5 81 -5 -2 -8
3 -8 12 0 9 5 13 11 10 7 -5 9 4 7 26 -3 30 -8 35 -75 63 -40 16 -70 32 -68
36 2 3 -4 6 -13 6 -9 0 -28 4 -42 8 -16 5 -21 5 -15 -1z"/>
<path d="M1680 2350 c-12 -7 -10 -9 7 -7 12 0 19 5 17 9 -6 10 -6 10 -24 -2z"/>
<path d="M3015 2310 c-16 -7 -17 -9 -3 -9 9 -1 20 4 23 9 7 11 7 11 -20 0z"/>
<path d="M3790 2306 c0 -3 9 -10 20 -16 11 -6 20 -8 20 -6 0 3 -9 10 -20 16
-11 6 -20 8 -20 6z"/>
<path d="M3654 2269 c-3 -6 -2 -15 3 -20 5 -5 9 -1 9 11 0 23 -2 24 -12 9z"/>
<path d="M2805 2210 c5 -8 42 -6 50 1 2 3 -8 5 -25 5 -16 0 -27 -3 -25 -6z"/>
<path d="M2727 2139 c7 -7 15 -10 18 -7 3 3 -2 9 -12 12 -14 6 -15 5 -6 -5z"/>
<path d="M3019 2112 c9 -7 10 -11 2 -15 -7 -4 -8 -5 -1 -3 16 2 14 20 -2 24
-10 3 -10 2 1 -6z"/>
<path d="M3346 2048 c3 -5 10 -6 15 -3 13 9 11 12 -6 12 -8 0 -12 -4 -9 -9z"/>
<path d="M1375 2029 c-4 -6 -5 -12 -2 -15 2 -3 7 2 10 11 7 17 1 20 -8 4z"/>
<path d="M2835 2030 c6 -10 4 -12 -11 -6 -15 6 -17 5 -6 -5 9 -9 15 -10 23 -2
8 8 7 13 -2 18 -8 6 -10 4 -4 -5z"/>
<path d="M3713 2018 c17 -16 17 -17 -1 -27 -13 -7 -23 -7 -32 2 -10 9 -11 9
-5 -1 11 -21 -25 -43 -61 -37 -33 6 -52 -14 -37 -37 4 -7 1 -8 -6 -3 -7 4 -11
16 -8 26 3 11 1 17 -3 14 -5 -3 -10 0 -12 5 -2 6 -21 15 -43 20 -35 8 -46 5
-117 -33 l-78 -42 0 -357 c0 -221 -4 -358 -10 -358 -5 0 -9 89 -9 226 0 125
-3 229 -6 232 -5 6 -6 -54 -6 -292 0 -105 -3 -136 -11 -128 -7 7 -16 12 -22
12 -5 0 -1 -7 10 -15 10 -8 14 -15 7 -15 -6 0 -18 6 -25 13 -7 6 -20 12 -28
12 -10 0 -14 8 -12 22 3 21 -17 27 -34 10 -4 -4 -14 -1 -23 7 -16 15 -20 16
-47 16 -8 0 -12 5 -9 10 4 6 12 7 18 4 8 -4 7 -2 -1 7 -11 12 -14 12 -22 -1
-6 -10 -10 -11 -10 -3 0 7 -6 10 -13 7 -8 -3 -18 5 -25 18 -6 13 -11 17 -11
11 -1 -7 -6 -13 -12 -13 -7 0 -5 11 5 28 l17 27 -19 -22 c-15 -17 -21 -19 -25
-9 -3 7 -1 18 5 24 6 6 6 12 -3 17 -7 5 -10 4 -6 -2 9 -15 -17 -23 -34 -11
-11 8 -10 9 4 4 9 -3 17 -1 17 5 0 6 -8 9 -17 7 -10 -2 -17 -10 -15 -17 2 -9
-3 -11 -13 -7 -10 3 -13 2 -10 -5 4 -5 16 -7 27 -3 13 4 18 2 14 -4 -7 -11
337 -187 352 -180 4 2 45 27 90 57 l82 54 1 66 c3 127 6 119 -71 196 -46 46
-69 77 -65 86 3 9 24 26 46 40 40 24 40 24 35 75 -2 30 0 56 6 62 6 6 7 19 4
29 -7 17 -9 16 -27 -5 -13 -17 -16 -29 -10 -40 13 -24 17 -89 7 -99 -5 -4 -6
-3 -2 4 3 6 2 14 -4 18 -5 3 -10 -2 -10 -12 0 -22 -57 -75 -66 -61 -3 5 -4 10
-3 12 2 1 16 10 31 19 18 11 25 22 21 33 -4 12 -8 13 -13 3 -5 -6 -15 -9 -24
-6 -12 5 -15 22 -14 84 1 79 10 113 30 113 6 0 5 -7 -3 -17 -13 -16 -12 -17 4
-4 9 8 15 16 12 19 -2 3 3 11 13 18 19 15 36 18 28 6 -2 -4 4 -8 14 -8 12 0
17 6 15 18 -2 10 4 19 13 22 28 7 82 2 83 -9 0 -5 8 -18 17 -28 16 -18 16 -20
-2 -33 -10 -7 -23 -11 -29 -7 -6 3 -7 1 -3 -5 7 -11 78 23 146 69 45 30 150
80 150 70 0 -5 -6 -11 -13 -14 -15 -5 -21 -75 -9 -94 4 -7 7 9 6 35 -2 36 2
50 17 60 31 21 22 28 -35 28 -30 -1 -52 -4 -50 -8 7 -10 -9 -10 -22 0 -5 4 -1
-1 9 -10z m51 0 c-3 -4 -12 -8 -20 -8 -8 0 -13 4 -10 8 3 5 12 9 20 9 8 0 13
-4 10 -9z m-150 -77 c3 -5 -1 -11 -9 -15 -15 -6 -29 7 -18 18 9 9 21 8 27 -3z
m-190 -115 c-3 -9 -10 -16 -15 -16 -6 0 -5 9 1 21 13 24 24 20 14 -5z m-60
-127 c-7 -13 -44 -17 -44 -6 0 7 11 12 24 12 13 0 22 -3 20 -6z m-25 -105
c-12 -15 -11 -16 8 -10 16 5 23 2 28 -14 4 -11 11 -17 17 -14 6 4 8 2 5 -3 -4
-6 0 -17 9 -24 14 -12 14 -14 -2 -26 -21 -16 -11 -17 17 -3 16 9 21 7 29 -16
6 -15 10 -41 9 -58 0 -17 2 -51 6 -76 7 -43 5 -47 -20 -58 -14 -7 -24 -8 -20
-2 3 5 1 10 -6 10 -6 0 -9 -8 -6 -20 3 -11 0 -23 -5 -27 -7 -3 -8 -1 -4 5 4 7
2 12 -4 12 -6 0 -8 6 -4 13 4 6 4 9 -1 5 -4 -4 -15 -2 -24 4 -12 10 -12 8 1
-8 19 -22 9 -44 -21 -44 -14 0 -14 -1 -1 -10 9 -6 10 -10 3 -10 -6 0 -14 3
-17 8 -3 6 -10 347 -7 375 1 4 6 7 12 7 8 0 7 -6 -2 -16z"/>
<path d="M3340 1569 c-13 -9 -13 -10 2 -6 18 6 32 -18 21 -35 -3 -7 -1 -8 5
-4 15 9 15 18 0 39 -10 13 -17 14 -28 6z"/>
<path d="M3365 1501 c-3 -5 -2 -12 3 -15 5 -3 9 1 9 9 0 17 -3 19 -12 6z"/>
<path d="M3448 1327 c-3 -19 -2 -25 4 -19 6 6 8 18 6 28 -3 14 -5 12 -10 -9z"/>
<path d="M2845 2000 c-3 -5 -1 -10 4 -10 6 0 11 5 11 10 0 6 -2 10 -4 10 -3 0
-8 -4 -11 -10z"/>
<path d="M3395 1990 c-3 -5 -2 -10 4 -10 5 0 13 5 16 10 3 6 2 10 -4 10 -5 0
-13 -4 -16 -10z"/>
<path d="M3805 1969 c-4 -6 -5 -12 -2 -15 2 -3 7 2 10 11 7 17 1 20 -8 4z"/>
<path d="M2900 1953 c0 -19 21 -27 33 -13 9 10 9 11 -2 5 -8 -4 -17 -2 -22 6
-6 9 -9 10 -9 2z"/>
<path d="M3826 1952 c-2 -4 -1 -14 4 -22 7 -11 9 -9 7 8 -1 24 -3 26 -11 14z"/>
<path d="M2950 1936 c-10 -13 3 -22 79 -61 88 -44 92 -45 119 -30 15 9 18 13
7 10 -23 -8 -25 -8 -47 -6 -12 1 -16 7 -12 19 4 13 3 14 -4 4 -7 -11 -16 -10
-46 6 -20 11 -32 22 -26 25 6 3 5 4 -2 3 -7 -2 -19 4 -26 13 -9 10 -11 11 -6
2 5 -11 3 -13 -10 -8 -10 4 -20 7 -23 7 -3 0 0 7 7 15 7 8 10 15 7 15 -2 0
-10 -7 -17 -14z"/>
<path d="M3720 1910 c-6 -11 -19 -46 -29 -78 -11 -31 -26 -76 -36 -98 -18 -46
-5 -41 -178 -63 -38 -5 -74 -14 -80 -21 -12 -12 -1 -23 123 -132 47 -41 50
-46 41 -74 -5 -16 -14 -56 -21 -89 -7 -33 -16 -73 -21 -89 -9 -30 -12 -86 -5
-86 3 0 43 24 91 53 47 28 103 62 124 74 l38 22 49 -24 c86 -42 168 -77 196
-86 23 -6 28 -4 28 9 -1 9 -7 28 -15 42 -17 29 -20 19 -4 -12 6 -11 8 -22 6
-25 -3 -2 -58 27 -122 66 -65 39 -123 71 -131 71 -7 0 -19 -6 -26 -13 -7 -7
-40 -32 -73 -55 -33 -23 -80 -56 -104 -74 -36 -25 -43 -28 -37 -12 8 20 76
268 76 277 0 3 -22 19 -49 36 -27 17 -59 41 -72 52 -13 11 -36 28 -51 37 -37
22 -35 30 10 37 20 3 62 10 93 15 30 6 67 10 81 10 24 0 29 8 57 86 17 47 31
90 31 95 0 6 5 7 12 3 7 -4 8 -3 4 4 -4 7 -3 19 2 28 7 12 19 -5 53 -77 24
-51 49 -102 54 -113 9 -18 23 -22 110 -27 55 -4 117 -10 138 -14 37 -7 42 -17
12 -21 -26 -4 -78 -46 -66 -54 7 -4 -8 -23 -40 -49 -55 -48 -56 -49 -22 -139
24 -65 26 -44 1 28 l-21 63 24 20 c13 10 57 49 98 85 l75 67 -70 12 c-38 6
-103 12 -145 12 l-76 1 -57 120 c-31 66 -59 120 -61 120 -2 0 -9 -9 -15 -20z
m365 -290 c-10 -11 -21 -17 -24 -14 -3 3 3 12 13 20 28 20 32 17 11 -6z"/>
<path d="M3446 1871 c-4 -5 -2 -12 4 -16 6 -4 8 -11 5 -16 -10 -15 8 -10 34
10 20 15 21 19 7 24 -9 4 -15 2 -13 -5 1 -6 -4 -13 -12 -16 -8 -2 -11 0 -7 6
3 6 2 13 -3 16 -5 4 -12 2 -15 -3z"/>
<path d="M3389 1853 c-13 -16 -12 -17 4 -4 9 7 17 15 17 17 0 8 -8 3 -21 -13z"/>
<path d="M3152 1833 c-9 -3 -10 -9 -3 -17 6 -7 12 -71 14 -142 l3 -129 0 143
c-1 113 2 141 12 137 7 -3 10 0 7 5 -7 11 -13 11 -33 3z"/>
<path d="M3720 1810 c-9 -6 -10 -10 -3 -10 6 0 15 5 18 10 8 12 4 12 -15 0z"/>
<path d="M2806 1703 c-6 -14 -5 -15 5 -6 7 7 10 15 7 18 -3 3 -9 -2 -12 -12z"/>
<path d="M3603 1655 c-9 -10 -6 -12 14 -12 14 0 21 2 17 6 -5 3 -11 9 -14 13
-3 3 -10 0 -17 -7z"/>
<path d="M3896 1652 c-3 -5 1 -9 9 -9 8 0 12 4 9 9 -3 4 -7 8 -9 8 -2 0 -6 -4
-9 -8z"/>
<path d="M3477 1629 c7 -7 15 -10 18 -7 3 3 -2 9 -12 12 -14 6 -15 5 -6 -5z"/>
<path d="M2923 1607 c-24 -10 -31 -27 -12 -27 5 0 8 -4 4 -9 -3 -5 0 -13 6
-17 8 -4 9 -3 5 4 -8 14 3 15 23 3 11 -7 10 -11 -5 -21 -16 -10 -16 -11 -1 -6
9 3 17 1 17 -4 0 -6 8 -10 17 -10 15 0 14 2 -3 15 -26 19 -13 19 30 -2 19 -9
33 -20 30 -25 -3 -5 -13 -3 -22 4 -15 12 -16 11 -4 -4 11 -13 18 -15 31 -6 13
8 29 4 69 -16 28 -14 54 -26 57 -26 3 0 5 16 5 35 0 27 -4 35 -18 35 -10 0
-22 4 -27 8 -6 5 -32 18 -60 29 -27 12 -66 28 -85 36 -26 11 -41 12 -57 4z
m59 -33 c-4 -10 -17 -8 -42 6 -10 6 -6 8 15 6 17 -2 28 -7 27 -12z m32 -12 c3
-5 -1 -9 -9 -9 -8 0 -12 4 -9 9 3 4 7 8 9 8 2 0 6 -4 9 -8z m31 -11 c3 -5 1
-12 -5 -16 -5 -3 -10 1 -10 9 0 18 6 21 15 7z m35 -21 c-12 -8 -9 -10 13 -10
15 0 27 -6 28 -12 0 -10 2 -10 6 0 6 16 23 5 23 -16 0 -15 -2 -15 -10 -2 -5 8
-10 11 -10 6 0 -5 -6 -4 -12 1 -7 6 -26 13 -42 17 -23 6 -27 9 -15 17 7 5 19
9 24 9 6 0 3 -5 -5 -10z"/>
<path d="M2645 1601 c-3 -5 -2 -12 3 -15 5 -3 9 1 9 9 0 17 -3 19 -12 6z"/>
<path d="M4136 1598 c3 -5 10 -6 15 -3 13 9 11 12 -6 12 -8 0 -12 -4 -9 -9z"/>
<path d="M2866 1581 c-3 -5 0 -11 7 -14 8 -3 14 1 14 9 0 16 -13 19 -21 5z"/>
<path d="M3980 1570 c-14 -10 -22 -21 -19 -24 3 -3 16 5 29 19 28 30 24 32
-10 5z"/>
<path d="M2777 1534 c-43 -22 -65 -39 -61 -46 5 -8 2 -9 -9 -5 -10 3 -17 4
-17 2 0 -3 45 -27 100 -55 78 -39 105 -48 118 -41 16 10 14 11 -20 15 -7 0
-13 8 -13 16 0 8 -9 15 -20 15 -11 0 -19 6 -17 13 1 6 -3 12 -9 12 -6 0 -8 -9
-4 -22 6 -22 6 -22 -9 -4 -15 18 -14 22 6 43 12 13 16 23 10 23 -6 0 -9 7 -5
17 4 10 2 14 -5 9 -6 -3 -13 -2 -17 4 -3 5 -2 10 2 10 5 0 18 7 29 15 29 22
15 17 -59 -21z m29 -16 c5 -8 2 -9 -10 -5 -10 4 -15 3 -11 -3 3 -6 1 -10 -4
-10 -12 0 -14 13 -4 23 10 10 21 8 29 -5z m-8 -21 c12 3 22 1 22 -4 0 -12 -22
-33 -34 -33 -6 0 -2 7 8 15 11 8 15 15 9 15 -7 0 -15 -5 -18 -10 -4 -6 -10 -8
-15 -5 -5 3 -11 1 -15 -4 -3 -6 -12 -8 -20 -5 -11 5 -12 11 -4 25 7 15 14 17
28 10 10 -6 27 -7 39 -4z m-2 -54 c-6 -6 -36 9 -36 18 0 5 9 4 20 -3 10 -7 18
-14 16 -15z m71 -27 c0 -8 -6 -12 -15 -9 -11 5 -11 7 0 14 7 5 13 9 14 9 0 0
1 -6 1 -14z"/>
<path d="M3189 1568 c-5 -18 -6 -38 -1 -34 7 8 12 36 6 36 -2 0 -4 -1 -5 -2z"/>
<path d="M2863 1508 c-2 -16 0 -16 13 -4 17 18 18 23 1 23 -7 0 -14 -9 -14
-19z"/>
<path d="M3931 1404 c0 -11 3 -14 6 -6 3 7 2 16 -1 19 -3 4 -6 -2 -5 -13z"/>
<path d="M3894 1392 c-9 -5 -8 -10 1 -19 11 -10 13 -9 12 7 -1 11 -1 20 -2 20
0 0 -5 -4 -11 -8z"/>
<path d="M3962 1355 c4 -4 3 -14 -3 -21 -7 -9 -6 -14 3 -20 7 -4 10 -4 6 1 -4
4 -3 14 3 21 7 9 6 14 -3 20 -7 4 -10 4 -6 -1z"/>
<path d="M3991 1340 c0 -8 4 -22 9 -30 12 -18 12 -2 0 25 -6 13 -9 15 -9 5z"/>
<path d="M3160 1316 c0 -3 9 -10 20 -16 11 -6 20 -8 20 -6 0 3 -9 10 -20 16
-11 6 -20 8 -20 6z"/>
<path d="M3609 1303 c-13 -16 -12 -17 4 -4 16 13 21 21 13 21 -2 0 -10 -8 -17
-17z"/>
<path d="M3140 1290 c0 -5 5 -10 10 -10 6 0 10 5 10 10 0 6 -4 10 -10 10 -5 0
-10 -4 -10 -10z"/>
<path d="M885 1051 c-3 -5 -2 -12 3 -15 5 -3 9 1 9 9 0 17 -3 19 -12 6z"/>
</g>
</svg>
